<svg xmlns="http://www.w3.org/2000/svg" viewBox="0 0 17 16" fill="currentColor" aria-hidden="true" className="solid-icon">
  <g clip-path="url(#clip0_1643_16885)">
    <path d="M13.137 7.73L8.782 3.374a.902.902 0 00-.663-.278.902.902 0 00-.662.278l-6.372 6.36a.95.95 0 00-.277.677c0 .256.092.477.277.662l4.357 4.36a.888.888 0 00.654.262c.263 0 .49-.088.685-.262l6.357-6.376a.937.937 0 00.262-.67.892.892 0 00-.262-.655h-.001zM8.443 5.714L3.764 10.41a.452.452 0 01-.33.14.458.458 0 01-.333-.14.467.467 0 01-.139-.34c0-.133.048-.246.139-.337L7.779 5.05a.451.451 0 01.333-.138c.13 0 .238.047.33.138a.41.41 0 01.139.324.455.455 0 01-.138.337v.002zM14.63 6.545a.694.694 0 01.216.509.697.697 0 01-.217.509.65.65 0 01-.493.215.7.7 0 01-.508-.215L8.95 2.882a.701.701 0 01-.215-.51c0-.194.07-.365.215-.508a.65.65 0 01.492-.215.7.7 0 01.509.215l4.678 4.681zM15.984 1.539a.714.714 0 01-.501.2.714.714 0 01-.5-.2c.194.206.337.438.43.692.092.258.128.53.108.817-.02.287-.093.572-.215.854a3.053 3.053 0 01-.509.793v.016a.433.433 0 010 .663.467.467 0 01-.339.138.466.466 0 01-.339-.138l-3-3.003a.488.488 0 01-.123-.339c0-.133.047-.247.138-.338a.394.394 0 01.323-.155.44.44 0 01.34.155v.016c.246-.226.511-.4.8-.523.287-.122.574-.193.861-.209.288-.015.562.02.824.109.262.088.495.227.7.424a.685.685 0 01-.215-.501c0-.19.07-.352.215-.486a.682.682 0 01.5-.215c.19 0 .357.071.502.215a.751.751 0 01.207.51.662.662 0 01-.207.506V1.54z" class="highlight"/>
  </g>
  <defs>
    <clipPath id="clip0_1643_16885">
      <path d="M0 0h15.385v15.385H0z" transform="translate(.808 .308)"/>
    </clipPath>
  </defs>
</svg>
