<svg xmlns="http://www.w3.org/2000/svg" fill="none" viewBox="0 0 20 20" aria-hidden="true" className="icon-solid">
  <g clip-path="url(#clip0_1643_16896)">
    <path d="M8.914 4.519h2.142c.362-.176 1.143-.614 1.544-1.457.082-.178.462-.97.12-1.25-.356-.29-.995.364-2.142.26-.923-.082-1.021-.555-2.02-.572-.214-.003-1.158-.018-1.428.468-.123.224-.06.475 0 .624l1.784 1.925v.002zM17 13.046c0-2.242-1.871-5.238-4.322-6.625H7.322C4.872 7.808 3 10.806 3 13.046c.002.84.247 1.665.705 2.387-.13.14-.197.287-.197.438 0 .48.692.914 1.818 1.235C6.566 17.974 8.204 18.5 10 18.5c1.797 0 3.436-.528 4.675-1.394 1.126-.32 1.818-.755 1.818-1.235 0-.151-.07-.297-.197-.438a4.471 4.471 0 00.705-2.387H17zm-4.352-.986c.025.06.046.118.066.175.02.056.03.118.03.186a.345.345 0 01-.085.247.284.284 0 01-.217.09h-1.878v.788h2.058a.587.587 0 01.065.163.76.76 0 01.03.197.352.352 0 01-.083.247.271.271 0 01-.204.09h-1.866v1.655a1.483 1.483 0 01-.446.068c-.36 0-.541-.135-.541-.405v-1.316H7.469a.524.524 0 01-.12-.36c0-.135.03-.226.09-.271a.326.326 0 01.199-.068h1.939v-.788H7.469a.52.52 0 01-.12-.36c0-.128.03-.216.09-.264a.328.328 0 01.211-.074h1.42l-.536-.753a24.905 24.905 0 01-.511-.748 35.36 35.36 0 01-.451-.704c-.14-.226-.263-.428-.368-.608.055-.068.128-.132.217-.197a.528.528 0 01.313-.096c.136 0 .246.036.33.106.085.071.17.186.259.343l1.722 2.623h.06a22.536 22.536 0 00.94-1.467l.42-.704c.145-.24.31-.51.494-.81a.756.756 0 01.192-.073c.057-.012.128-.017.217-.017.143 0 .25.037.32.106a.359.359 0 01.102.254c0 .06-.05.18-.15.36-.102.18-.232.399-.391.653a48.425 48.425 0 01-1.156 1.733h1.555z" class="highlight"/>
    <path d="M11.755 5.05h-3.51c-.25 0-.451.189-.451.422 0 .232.202.421.45.421h3.511c.25 0 .451-.189.451-.421 0-.233-.202-.422-.45-.422z"/>
  </g>
  <defs>
    <clipPath id="clip0_1643_16896">
      <path fill="#fff" d="M0 0h14v17H0z" transform="translate(3 1.5)"/>
    </clipPath>
  </defs>
</svg>
