<svg xmlns="http://www.w3.org/2000/svg" viewBox="0 0 14 18" fill="currentColor" aria-hidden="true">
  <g clip-path="url(#clip0_1643_16898)">
    <path d="M5.914 3.519h2.142c.362-.176 1.143-.614 1.544-1.457.082-.178.462-.97.12-1.25-.356-.29-.995.364-2.142.26C6.655.99 6.557.518 5.558.5 5.343.497 4.4.482 4.13.968c-.123.224-.06.475 0 .624l1.784 1.925v.002zM14 12.046c0-2.242-1.871-5.238-4.322-6.625H4.322C1.872 6.808 0 9.806 0 12.046c.002.84.247 1.665.705 2.387-.13.14-.197.287-.197.438 0 .48.692.915 1.818 1.235C3.566 16.974 5.204 17.5 7 17.5c1.797 0 3.436-.528 4.675-1.394 1.126-.32 1.818-.755 1.818-1.235 0-.151-.07-.297-.197-.438a4.471 4.471 0 00.705-2.387H14zm-4.352-.986c.025.06.046.118.066.175.02.056.03.118.03.186a.345.345 0 01-.085.247.284.284 0 01-.217.09H7.564v.788h2.058a.583.583 0 01.065.163.76.76 0 01.03.197.352.352 0 01-.083.247.271.271 0 01-.204.09H7.564v1.655a1.483 1.483 0 01-.446.068c-.36 0-.541-.135-.541-.405v-1.316H4.469a.524.524 0 01-.12-.36c0-.135.03-.226.09-.271a.326.326 0 01.199-.068h1.939v-.788H4.469a.52.52 0 01-.12-.36c0-.128.03-.216.09-.264a.328.328 0 01.211-.074h1.42l-.536-.753a24.817 24.817 0 01-.511-.749 26.484 26.484 0 01-.819-1.311c.055-.068.128-.132.217-.197a.528.528 0 01.313-.096c.136 0 .246.036.33.106.085.071.17.186.259.343l1.722 2.623h.06a22.65 22.65 0 00.94-1.468l.42-.703c.145-.24.31-.51.494-.81a.755.755 0 01.192-.073c.057-.012.128-.017.217-.017.143 0 .25.037.32.106a.359.359 0 01.102.254c0 .06-.05.18-.15.36-.102.18-.232.399-.391.653a48.033 48.033 0 01-1.156 1.733h1.555z" class="fill-highlight"/>
    <path d="M8.755 4.05h-3.51c-.25 0-.451.189-.451.422 0 .232.202.421.45.421h3.511c.25 0 .451-.189.451-.421 0-.233-.202-.422-.45-.422z"/>
  </g>
  <defs>
    <clipPath id="clip0_1643_16898">
      <path d="M0 0h14v17H0z" transform="translate(0 .5)"/>
    </clipPath>
  </defs>
</svg>
