<svg xmlns="http://www.w3.org/2000/svg" fill="none" viewBox="0 0 20 20" aria-hidden="true" className="icon-solid">
  <g clip-path="url(#clip0_1245_27725)">
    <path d="M10 2.5a1.004 1.004 0 00-1 1v1a1.004 1.004 0 001 1 1.004 1.004 0 001-1v-1a1.004 1.004 0 00-1-1z" clip-rule="evenodd"/>
    <path d="M17.414 5.086A2 2 0 0016 4.5h-3c0 .795-.317 1.558-.88 2.12A2.999 2.999 0 017 4.5H4a2 2 0 00-2 2v9a2 2 0 002 2h12a2 2 0 002-2v-9a2 2 0 00-.586-1.414zM5.44 8.94a1.5 1.5 0 112.122 2.12A1.5 1.5 0 015.44 8.94zM8.95 15.5h-4.9a2.488 2.488 0 01.514-2.08 2.503 2.503 0 014.363.982c.09.361.098.735.023 1.098zm5.757-1.294a1.003 1.003 0 01-.705.294h-2a1.008 1.008 0 01-1-1 1.003 1.003 0 011-1h2a1.004 1.004 0 011 1c0 .263-.105.52-.295.706zm1-3a1.003 1.003 0 01-.705.294h-3a1.004 1.004 0 01-1-1 1.003 1.003 0 011-1h3a1.004 1.004 0 011 1c0 .263-.105.52-.295.706z" class="highlight" clip-rule="evenodd"/>
  </g>
  <defs>
    <clipPath id="clip0_1245_27725">
      <path fill="#fff" d="M0 0h16v15H0z" transform="translate(2 2.5)"/>
    </clipPath>
  </defs>
</svg>
