<svg xmlns="http://www.w3.org/2000/svg" fill="none" viewBox="0 0 20 20" aria-hidden="true" className="icon-solid">
  <g clip-path="url(#clip0_1643_16889)">
    <path d="M15.415 2.585A2 2 0 0014 2H6c-.53 0-1.038.21-1.415.585A2.006 2.006 0 004 4v12a2 2 0 002 2h8a2 2 0 002-2V4c0-.53-.21-1.038-.585-1.415zM7.716 15.707A1.001 1.001 0 017.01 16H7a.998.998 0 110-1.998h.01a.997.997 0 01.706 1.705zm0-2.999a1.001 1.001 0 01-.706.293H7a.998.998 0 110-1.998h.01a.997.997 0 01.706 1.705zm0-2.999a1 1 0 01-.706.293H7a.998.998 0 01-.707-1.706 1 1 0 01.706-.292h.01a.998.998 0 01.707 1.705zm3 6a1 1 0 01-.707.293h-.01a.998.998 0 110-1.998h.01a.997.997 0 01.999.999 1 1 0 01-.293.706zm0-2.999a1 1 0 01-.707.293h-.01a.998.998 0 110-1.998h.01a.997.997 0 01.999.999 1 1 0 01-.293.706zm0-2.999a1 1 0 01-.707.293h-.01a.998.998 0 01-.707-1.706 1 1 0 01.706-.293h.01a.998.998 0 01.707 1.706zm3.282 5.293a.998.998 0 01-1.705.707 1.001 1.001 0 01-.293-.707v-2.999a.998.998 0 111.998 0v3zm-.284-5.293a1 1 0 01-.706.293h-.01a.998.998 0 01-.707-1.706 1 1 0 01.706-.293h.011a.998.998 0 01.707 1.706z" class="highlight" clip-rule="evenodd"/>
    <path d="M7 4a.998.998 0 00-.707 1.706 1 1 0 00.706.292h6a.998.998 0 00.707-1.705A1 1 0 0012.999 4H7z" clip-rule="evenodd"/>
    <path fill="#fff" d="M13 6.357H7c-.363 0-.704-.141-.96-.398a1.348 1.348 0 01-.399-.96c0-.362.141-.703.398-.96s.598-.398.96-.398h6c.362 0 .703.141.96.398s.398.598.398.96-.141.703-.398.96a1.348 1.348 0 01-.96.398zm-6-2a.641.641 0 00-.456.189.641.641 0 000 .91c.121.121.284.189.455.189h6A.642.642 0 0013.643 5 .642.642 0 0013 4.357H7z"/>
  </g>
  <defs>
    <clipPath id="clip0_1643_16889">
      <path fill="#fff" d="M0 0h12v16H0z" transform="translate(4 2)"/>
    </clipPath>
  </defs>
</svg>
