<svg xmlns="http://www.w3.org/2000/svg" viewBox="0 0 12 16" fill="currentColor" aria-hidden="true">
  <g clip-path="url(#clip0_1643_16891)">
    <path d="M11.415.585A2 2 0 0010 0H2C1.47 0 .962.21.585.585A2.006 2.006 0 000 2v12a2 2 0 002 2h8a2 2 0 002-2V2c0-.53-.21-1.038-.585-1.415zM3.716 13.707A1.001 1.001 0 013.01 14H3a.998.998 0 110-1.998h.01a.997.997 0 01.706 1.705zm0-2.999a1.001 1.001 0 01-.706.293H3a.998.998 0 110-1.998h.01a.998.998 0 01.706 1.705zm0-2.999a1 1 0 01-.706.293H3a.998.998 0 01-.707-1.706 1 1 0 01.706-.292h.01a.998.998 0 01.707 1.705zm3 6a1.001 1.001 0 01-.707.293h-.01a.998.998 0 110-1.998h.01a.997.997 0 01.706 1.705zm0-2.999a1.001 1.001 0 01-.707.293h-.01a.998.998 0 110-1.999h.01a.998.998 0 01.706 1.706zm0-2.999a1 1 0 01-.707.293h-.01a.998.998 0 01-.707-1.706 1 1 0 01.706-.293h.01a.998.998 0 01.707 1.706zm3.282 5.293a.998.998 0 11-1.998 0v-2.999A.998.998 0 019.706 9.3a1 1 0 01.292.706v3zm-.283-5.293a1 1 0 01-.707.293h-.01a.998.998 0 01-.707-1.706 1 1 0 01.706-.293h.011a.998.998 0 01.707 1.706z" class="highlight" clip-rule="evenodd"/>
    <path fill-rule="evenodd" d="M3 2a.998.998 0 00-.707 1.706 1 1 0 00.706.292h6a.998.998 0 00.707-1.705A1 1 0 008.999 2H3z" clip-rule="evenodd"/>
    <path d="M9 4.357H3c-.363 0-.704-.141-.96-.398a1.348 1.348 0 01-.399-.96c0-.362.141-.703.398-.96s.598-.398.96-.398h6c.362 0 .703.141.96.398s.398.598.398.96-.141.703-.398.96a1.348 1.348 0 01-.96.398zm-6-2a.641.641 0 00-.456.189.641.641 0 000 .91c.121.121.284.189.455.189h6a.641.641 0 00.455-.19.641.641 0 000-.91A.641.641 0 009 2.358H3z"/>
  </g>
  <defs>
    <clipPath id="clip0_1643_16891">
      <path d="M0 0h12v16H0z"/>
    </clipPath>
  </defs>
</svg>
