<svg xmlns="http://www.w3.org/2000/svg" fill="none" viewBox="0 0 20 20" aria-hidden="true" className="icon-solid">
  <g clip-path="url(#clip0_1643_16848)">
    <path d="M9.611 14.773a3.542 3.542 0 01-1.018-2.5c0-.945.362-1.833 1.018-2.5a3.43 3.43 0 012.46-1.037c.93 0 1.804.367 2.46 1.035A3.465 3.465 0 0117.35 8.72l-6.764-6.872a1.032 1.032 0 00-1.471 0L1.83 9.253a1.071 1.071 0 00.012 1.482 1.03 1.03 0 001.459.011l.304-.31v6.967c0 .28.11.55.305.748.195.198.46.31.735.31h8.592L9.61 14.77l.002.002z" class="highlight"/>
    <path d="M18.04 11.208a1.438 1.438 0 00-1.032-.43 1.417 1.417 0 00-1.024.448l-.013.013-1.442 1.464-1.409-1.43a1.49 1.49 0 00-.988-.46 1.422 1.422 0 00-1.081.426 1.465 1.465 0 00-.42 1.098c.016.381.19.736.453 1.006l3.162 3.213c.156.159.41.159.566 0l3.207-3.26a1.475 1.475 0 00.332-1.608 1.48 1.48 0 00-.315-.48h.003z"/>
  </g>
  <defs>
    <clipPath id="clip0_1643_16848">
      <path fill="#fff" d="M0 0h16.923v16.923H0z" transform="translate(1.538 1.539)"/>
    </clipPath>
  </defs>
</svg>
