<svg xmlns="http://www.w3.org/2000/svg" viewBox="0 0 18 18" fill="currentColor" aria-hidden="true" className="solid-icon">
  <g clip-path="url(#clip0_1643_16850)">
    <path d="M8.611 13.773a3.542 3.542 0 01-1.018-2.5c0-.945.362-1.833 1.018-2.5a3.43 3.43 0 012.46-1.037c.93 0 1.804.367 2.46 1.035A3.465 3.465 0 0116.35 7.72L9.586.848a1.032 1.032 0 00-1.471 0L.83 8.253a1.071 1.071 0 00.012 1.482 1.03 1.03 0 001.459.011l.304-.31v6.967c0 .28.11.55.305.748.195.198.46.31.735.31h8.592L8.61 13.77l.001.002z" class="highlight"/>
    <path d="M17.04 10.208a1.438 1.438 0 00-1.032-.43 1.417 1.417 0 00-1.024.448l-.013.013-1.442 1.464-1.409-1.43a1.49 1.49 0 00-.988-.46 1.422 1.422 0 00-1.081.426 1.466 1.466 0 00-.42 1.098c.016.381.19.736.453 1.006l3.162 3.213c.156.159.41.159.566 0l3.207-3.26a1.475 1.475 0 00.332-1.608 1.48 1.48 0 00-.315-.48h.003z"/>
  </g>
  <defs>
    <clipPath id="clip0_1643_16850">
      <path d="M0 0h16.923v16.923H0z" transform="translate(.538 .539)"/>
    </clipPath>
  </defs>
</svg>
