<svg xmlns="http://www.w3.org/2000/svg" fill="none" viewBox="0 0 20 20" aria-hidden="true" className="icon-solid">
  <g clip-path="url(#clip0_1245_27713)">
    <path d="M9 2c-.265 0-.52.098-.707.275A.905.905 0 008 2.938c0 .248.105.487.293.662.19.177.442.275.707.275h2c.265 0 .52-.098.707-.275A.905.905 0 0012 2.937a.901.901 0 00-.293-.662A1.042 1.042 0 0011 2H9z"/>
    <path d="M4 4.813c0-.498.212-.974.587-1.325.375-.352.882-.55 1.413-.55 0 .746.316 1.46.878 1.99A3.103 3.103 0 009 5.75h2c.796 0 1.559-.297 2.122-.823A2.724 2.724 0 0014 2.937c.53 0 1.038.199 1.413.55.375.352.587.828.587 1.325v10.313c0 .497-.212.973-.587 1.325S14.531 17 14 17H6c-.53 0-1.038-.198-1.413-.55A1.816 1.816 0 014 15.125V4.812zm9.707 5.35a.91.91 0 00.28-.66.9.9 0 00-.293-.656 1.053 1.053 0 00-1.403-.012l-3.294 3.088-1.293-1.213A1.04 1.04 0 007 10.447c-.263 0-.513.1-.699.275a.91.91 0 00-.293.655c0 .247.1.483.28.66l2 1.875c.189.175.442.275.707.275.265 0 .52-.098.707-.274l4-3.75h.005z" class="highlight" clip-rule="evenodd"/>
  </g>
  <defs>
    <clipPath id="clip0_1245_27713">
      <path fill="#fff" d="M0 0h12v15H0z" transform="translate(4 2)"/>
    </clipPath>
  </defs>
</svg>
