<svg xmlns="http://www.w3.org/2000/svg" viewBox="0 0 12 15" fill="currentColor" aria-hidden="true" className="solid-icon">
  <g clip-path="url(#clip0_1245_27716)">
    <path d="M5 0c-.265 0-.52.098-.707.275A.905.905 0 004 .938c0 .248.105.487.293.662.19.177.442.275.707.275h2c.265 0 .52-.098.707-.275A.905.905 0 008 .937a.901.901 0 00-.293-.662A1.042 1.042 0 007 0H5z"/>
    <path d="M0 2.813c0-.498.212-.974.587-1.325.375-.352.882-.55 1.413-.55 0 .746.316 1.46.878 1.99A3.103 3.103 0 005 3.75h2c.796 0 1.559-.297 2.122-.823A2.725 2.725 0 0010 .937c.53 0 1.038.199 1.413.55.375.352.587.828.587 1.325v10.313c0 .497-.212.973-.587 1.325S10.531 15 10 15H2c-.53 0-1.038-.198-1.413-.55A1.816 1.816 0 010 13.125V2.812zm9.707 5.35a.91.91 0 00.28-.66.9.9 0 00-.293-.656 1.053 1.053 0 00-1.403-.012L4.997 9.923 3.704 8.71A1.04 1.04 0 003 8.447c-.263 0-.513.1-.699.275a.91.91 0 00-.293.655c0 .247.1.483.28.66l2 1.875c.189.175.442.275.707.275.265 0 .52-.098.707-.274l4-3.75h.005z" class="highlight" clip-rule="evenodd"/>
  </g>
  <defs>
    <clipPath id="clip0_1245_27716">
      <path d="M0 0h12v15H0z"/>
    </clipPath>
  </defs>
</svg>
