<svg xmlns="http://www.w3.org/2000/svg" viewBox="0 0 18 18" fill="currentColor" aria-hidden="true">
  <g clip-path="url(#clip0_1643_16855)">
    <path d="M9.049.84a1.02 1.02 0 00-1.446 0L.442 8.031a1.026 1.026 0 00.012 1.44 1.023 1.023 0 001.435.013l.3-.301v6.765a1.03 1.03 0 001.023 1.027h2.046a1.03 1.03 0 001.023-1.027v-2.832a1.03 1.03 0 011.023-1.027H9.35a1.03 1.03 0 011.023 1.027v1.729l1.93.012.058 2.12h1.082a1.03 1.03 0 001.023-1.027V9.183l.3.301c.194.187.452.29.72.29a1.025 1.025 0 001.015-1.02c.003-.27-.1-.529-.288-.723L9.05.841z" class="highlight"/>
    <path fill-rule="evenodd" d="M13.582 16.84a1.375 1.375 0 01-1.362-1.37c-.003-.33.11-.646.32-.897H8.296c-.367 0-.712-.143-.972-.405a1.374 1.374 0 01-.402-.975 1.373 1.373 0 011.374-1.38h4.242a1.386 1.386 0 01.519-2.184 1.355 1.355 0 011.062.01c.168.072.319.176.445.308l2.26 2.27c.26.26.402.607.402.976 0 .368-.142.714-.402.976l-2.267 2.276a1.368 1.368 0 01-.963.395h-.012.001z" clip-rule="evenodd"/>
    <path d="M13.576 10.148h.006a.768.768 0 01.535.232l2.268 2.276a.76.76 0 010 1.073l-2.267 2.277a.754.754 0 01-.525.212h-.006a.758.758 0 01-.537-1.285l.976-.98H8.295a.76.76 0 010-1.517h5.733l-.977-.981a.769.769 0 01-.175-.831.751.751 0 01.414-.415.758.758 0 01.286-.056m0-1.244a2 2 0 00-1.973 2.286H8.296a1.995 1.995 0 00-1.994 2.002A1.994 1.994 0 008.297 15.2h3.323a2 2 0 001.96 2.268h.016c.52 0 1.012-.2 1.385-.563l.008-.008.008-.008 2.267-2.277c.376-.377.584-.88.584-1.415s-.208-1.039-.584-1.416l-2.261-2.27a1.987 1.987 0 00-1.407-.604h-.017l-.003.003z"/>
  </g>
  <defs>
    <clipPath id="clip0_1643_16855">
      <path d="M0 0h17.692v16.923H0z" transform="translate(.154 .539)"/>
    </clipPath>
  </defs>
</svg>
