<svg xmlns="http://www.w3.org/2000/svg" viewBox="0 0 16 16" fill="currentColor" aria-hidden="true">
  <g clip-path="url(#clip0_1643_16872)">
    <path d="M8.036 9V7.844c0-.467.38-.844.848-.844h4.175V2.034a2.06 2.06 0 00-.185-.876A2.017 2.017 0 0011.049 0H3.047a2.003 2.003 0 00-2.044 2v12a1.004 1.004 0 00-1.004 1 1.005 1.005 0 001.016 1.001h2.987A1.003 1.003 0 005.019 15v-1.988c0-.124.018-.25.064-.366.157-.403.537-.646.941-.646h2.009V9h.003zm0-6h2.009v2H8.036V3zM6.028 9H4.019V7h2.009v2zm0-4H4.019V3h2.009v2z" class="fill-highlight" clip-rule="evenodd"/>
    <path fill-rule="evenodd" d="M9.81 8.123a.475.475 0 01.476.474v.996a3.34 3.34 0 013.1-.918 3.342 3.342 0 011.489.755c.424.373.745.847.934 1.379a.476.476 0 01-.011.368.47.47 0 01-.275.249.483.483 0 01-.519-.138.472.472 0 01-.092-.164 2.38 2.38 0 00-1.885-1.554 2.392 2.392 0 00-2.266.92h1.43a.474.474 0 110 .947H9.808a.475.475 0 01-.476-.474V8.595a.475.475 0 01.476-.473v.002zm.003 4.294a.481.481 0 01.607.288 2.38 2.38 0 001.886 1.554 2.393 2.393 0 002.266-.92h-1.43a.478.478 0 01-.475-.475.474.474 0 01.476-.473h2.38a.479.479 0 01.476.473v2.37a.474.474 0 01-.812.335.474.474 0 01-.14-.334v-.996a3.34 3.34 0 01-4.59.163 3.312 3.312 0 01-.933-1.38.475.475 0 01.29-.605z" clip-rule="evenodd"/>
  </g>
  <defs>
    <clipPath id="clip0_1643_16872">
      <path d="M0 0h16v16H0z"/>
    </clipPath>
  </defs>
</svg>
