<svg xmlns="http://www.w3.org/2000/svg" fill="none" viewBox="0 0 20 20" aria-hidden="true" className="icon-solid">
  <g clip-path="url(#clip0_1643_16870)">
    <path d="M10.036 11V9.844c0-.467.38-.844.848-.844h4.175V4.034a2.06 2.06 0 00-.185-.876A2.017 2.017 0 0013.049 2H5.047a2.003 2.003 0 00-2.044 2v12a1.004 1.004 0 00-1.004 1 1.005 1.005 0 001.016 1.001h2.987A1.003 1.003 0 007.019 17v-1.988c0-.124.018-.25.064-.366.157-.403.537-.646.941-.646h2.009v-3h.003zm0-6h2.009v2h-2.009V5zm-2.008 6H6.019V9h2.009v2zm0-4H6.019V5h2.009v2z" class="highlight" clip-rule="evenodd"/>
    <path d="M11.81 10.123a.475.475 0 01.476.473v.997a3.34 3.34 0 013.1-.918 3.342 3.342 0 011.489.755c.424.373.745.847.934 1.379a.476.476 0 01-.011.368.47.47 0 01-.275.249.483.483 0 01-.519-.138.472.472 0 01-.092-.164 2.38 2.38 0 00-1.885-1.554 2.393 2.393 0 00-2.266.92h1.43a.474.474 0 110 .947H11.81a.475.475 0 01-.476-.474v-2.369a.474.474 0 01.476-.473v.002zm.003 4.294a.481.481 0 01.607.288 2.38 2.38 0 001.886 1.554 2.393 2.393 0 002.266-.92h-1.43a.478.478 0 01-.475-.475.474.474 0 01.476-.473h2.38a.479.479 0 01.476.473v2.37a.474.474 0 01-.812.335.474.474 0 01-.14-.334v-.997a3.34 3.34 0 01-4.59.164 3.312 3.312 0 01-.933-1.38.475.475 0 01.29-.605z" clip-rule="evenodd"/>
  </g>
  <defs>
    <clipPath id="clip0_1643_16870">
      <path fill="#fff" d="M0 0h16v16H0z" transform="translate(2 2)"/>
    </clipPath>
  </defs>
</svg>
