<svg xmlns="http://www.w3.org/2000/svg" viewBox="0 0 12 20" fill="currentColor" aria-hidden="true">
  <g clip-path="url(#clip0_1643_16877)">
    <path d="M2.952 4.407c1.013 0 1.834-.849 1.834-1.896S3.966.615 2.952.615c-1.012 0-1.833.85-1.833 1.896 0 1.047.82 1.896 1.833 1.896zM11.23 6.578L9.67 4.23a.827.827 0 00-.592-.366.85.85 0 00-.192-.025H5.687c-.02 0-.04.005-.059.005a1.315 1.315 0 00-.794.246 1.435 1.435 0 00-.35 1.955l2.882 4.332L5.17 12.96a1.081 1.081 0 00-.257.682 1.011 1.011 0 00-.014.163v4.76c0 .593.464 1.073 1.038 1.073.573 0 1.037-.48 1.037-1.073V14.09l2.673-3.144c.089-.104.154-.223.197-.345A1.443 1.443 0 009.8 9.08l-2.329-3.5h1.055l1.32 1.986a.824.824 0 001.17.223.888.888 0 00.215-1.21l-.002-.001z" class="fill-highlight"/>
    <path d="M.934 19.846a.323.323 0 01-.319-.33v-8.08c0-.783.615-1.418 1.372-1.418.757 0 1.371.635 1.371 1.417 0 .183-.142.33-.318.33a.323.323 0 01-.319-.33.748.748 0 00-.734-.759.747.747 0 00-.735.76v8.08c0 .183-.142.33-.318.33z"/>
    <path d="M4.038 7.03l-.105.953a.208.208 0 01-.135.174l-1.955.696a.876.876 0 00-.52 1.104c.15.453.63.696 1.068.538l3.294-1.172h.002c.123-.046.17-.201.096-.313l-1.38-2.073c-.107-.16-.345-.097-.367.094h.002zM11.355 18.295l-1.5-6.706s-.004-.005-.006-.001l-1.68 1.975v.004l1.173 5.24c.123.55.637.905 1.17.818.605-.098.984-.714.845-1.331l-.002.001z" class="fill-highlight"/>
  </g>
  <defs>
    <clipPath id="clip0_1643_16877">
      <path d="M0 0h10.769v19.231H0z" transform="translate(.615 .615)"/>
    </clipPath>
  </defs>
</svg>
