<svg xmlns="http://www.w3.org/2000/svg" fill="none" viewBox="0 0 20 20" aria-hidden="true" className="icon-solid">
  <g clip-path="url(#clip0_1245_27719)">
    <path d="M11 6c0 .796-.316 1.56-.88 2.12a2.997 2.997 0 01-4.24 0 2.997 2.997 0 010-4.24 2.993 2.993 0 014.24 0c.564.563.88 1.324.88 2.12zM14 17a6.002 6.002 0 00-12 0h12z" class="highlight"/>
    <path d="M13 8a1 1 0 100 2h4a1 1 0 100-2h-4z"/>
  </g>
  <defs>
    <clipPath id="clip0_1245_27719">
      <path fill="#fff" d="M0 0h16v14H0z" transform="translate(2 3)"/>
    </clipPath>
  </defs>
</svg>
