<svg xmlns="http://www.w3.org/2000/svg" fill="none" viewBox="0 0 20 20" aria-hidden="true" className="icon-solid">
  <g clip-path="url(#clip0_1372_15882)">
    <path d="M8.068 13.08c-.282 0-.553.12-.748.32-.204.21-.31.48-.31.77 0 .29.116.57.31.77.204.2.466.32.748.32s.553-.12.748-.32c.203-.21.31-.48.31-.77 0-.29-.116-.57-.31-.77a1.028 1.028 0 00-.748-.32z" class="highlight" clip-rule="evenodd"/>
    <path d="M8.068 10.34c-2.379 0-4.388 1.61-5.068 3.83C3.68 16.39 5.69 18 8.068 18c2.379 0 4.388-1.61 5.068-3.83-.68-2.22-2.69-3.83-5.068-3.83zm1.505 5.37a2.1 2.1 0 01-1.505.64 2.1 2.1 0 01-1.505-.64 2.23 2.23 0 01-.621-1.55c0-.58.223-1.14.621-1.55a2.1 2.1 0 011.505-.64 2.1 2.1 0 011.505.64c.398.41.621.97.621 1.55 0 .58-.223 1.14-.621 1.55z" class="highlight" clip-rule="evenodd"/>
    <path d="M16.427 5.99l-3.31-3.4A1.925 1.925 0 0011.728 2H7.291c-.514 0-1.01.21-1.369.59-.369.38-.572.88-.572 1.41v5.64s.01.02.029.02a6.764 6.764 0 012.689-.57c3.107 0 5.738 2.06 6.69 4.93.038.1.038.22 0 .32a7.295 7.295 0 01-2.69 3.63c-.02.01 0 .03.01.03h2.99c.514 0 1.01-.21 1.369-.59.369-.38.573-.88.573-1.41V7.42c0-.54-.204-1.05-.573-1.43h-.01z" class="highlight" clip-rule="evenodd"/>
  </g>
  <defs>
    <clipPath id="clip0_1372_15882">
      <path fill="#fff" d="M0 0h14v16H0z" transform="translate(3 2)"/>
    </clipPath>
  </defs>
</svg>
