<svg xmlns="http://www.w3.org/2000/svg" viewBox="0 0 20 20" fill="currentColor" aria-hidden="true">
  <g fill-rule="evenodd" clip-path="url(#clip0_1372_15882)" clip-rule="evenodd">
    <path d="M7.93 13.128c-.302 0-.593.122-.801.325a1.078 1.078 0 00-.333.782c0 .295.125.58.333.782.218.203.5.325.801.325.302 0 .593-.122.8-.325.22-.213.334-.487.334-.782 0-.294-.125-.579-.333-.782a1.13 1.13 0 00-.801-.325z"/>
    <path d="M7.93 10.345c-2.549 0-4.702 1.635-5.43 3.89.728 2.255 2.881 3.89 5.43 3.89s4.702-1.635 5.43-3.89c-.728-2.255-2.881-3.89-5.43-3.89zM9.542 15.8a2.311 2.311 0 01-1.612.65 2.312 2.312 0 01-1.612-.65 2.203 2.203 0 01-.666-1.574c0-.589.24-1.158.666-1.574A2.312 2.312 0 017.93 12c.603 0 1.186.233 1.612.65.427.416.666.985.666 1.574 0 .59-.24 1.158-.666 1.574z"/>
    <path d="M16.886 5.927L13.34 2.474a2.119 2.119 0 00-1.487-.599H7.098a2.07 2.07 0 00-1.467.6 1.99 1.99 0 00-.614 1.431v5.728s.01.02.032.02a7.587 7.587 0 012.881-.578c3.329 0 6.148 2.092 7.167 5.007a.439.439 0 010 .325c-.53 1.513-1.56 2.793-2.881 3.687-.021.01 0 .03.01.03h3.204a2.07 2.07 0 001.467-.6 1.99 1.99 0 00.613-1.431V7.38c0-.549-.218-1.067-.613-1.453h-.01z"/>
  </g>
  <defs>
    <clipPath id="clip0_1372_15882">
      <path d="M0 0h15v16.25H0z" transform="translate(2.5 1.875)"/>
    </clipPath>
  </defs>
</svg>
