<svg xmlns="http://www.w3.org/2000/svg" viewBox="0 0 16 12" fill="currentColor" aria-hidden="true" className="solid-icon">
  <g clip-path="url(#clip0_1643_16867)">
    <path d="M2 0C1.47 0 .961.21.585.585A2.004 2.004 0 000 2v1h16V2a2.001 2.001 0 00-2-2H2z"/>
    <path d="M16 5H0v5a2.002 2.002 0 002 2h12a2.002 2.002 0 002-2V5zM2 9a.998.998 0 011-1h1a.998.998 0 110 2H3a.998.998 0 01-1-1zm5-1a.998.998 0 100 2h1a1.004 1.004 0 001-1 1.004 1.004 0 00-1-1H7z" class="highlight" clip-rule="evenodd"/>
  </g>
  <defs>
    <clipPath id="clip0_1643_16867">
      <path d="M0 0h16v12H0z"/>
    </clipPath>
  </defs>
</svg>
