<svg xmlns="http://www.w3.org/2000/svg" viewBox="0 0 14 16" fill="currentColor" aria-hidden="true">
  <g clip-path="url(#clip0_1512_15854)">
    <path d="M13.399 3.998L9.855.59A2.094 2.094 0 008.394 0H3.637c-.549 0-1.077.21-1.46.59-.395.38-.612.88-.612 1.409v3.937c0 .1.114.14.186.07.715-.64 1.71-.98 2.788-.8 1.264.22 2.31 1.19 2.59 2.4a3.037 3.037 0 01-.725 2.738c-.03.03 0 .08.042.08h.994c.892 0 1.607.69 1.607 1.549v3.887c0 .06.051.11.114.11h2.777c.55 0 1.078-.21 1.461-.59s.611-.88.611-1.409V5.407c0-.53-.217-1.04-.6-1.41h-.011z" class="fill-highlight" clip-rule="evenodd"/>
    <path d="M.062 13.741h7.772s.062 0 .062-.06v-1.549c-.134-.32-.466-.65-.808-.65H4.674v-1.228c.87-.39 1.471-1.29 1.336-2.259-.134-.9-.932-1.619-1.875-1.749-1.337-.13-2.415.84-2.415 2.069 0 .9.54 1.619 1.337 1.939v1.229H.674c-.332 0-.674.26-.674.65v1.548s0 .06.062.06zM7.295 14.7h-6.6a.66.66 0 00-.674.65c0 .36.3.65.673.65h6.601a.66.66 0 00.674-.65c0-.36-.3-.65-.674-.65z" class="fill-highlight"/>
  </g>
  <defs>
    <clipPath id="clip0_1512_15854">
      <path d="M0 0h14v16H0z"/>
    </clipPath>
  </defs>
</svg>
