<svg xmlns="http://www.w3.org/2000/svg" fill="none" viewBox="0 0 24 24" stroke-width="2" stroke="currentColor" aria-hidden="true">
  <path fill="#8D95A4" fill-rule="evenodd" d="M19.351 12.604c-.268-.805-1.477-.805-1.611 0 0 .135-.134.269-.134.403s-.135.134-.269.268c-.134 0-.268.135-.403 0-.134 0-.268 0-.402-.134a.89.89 0 00-1.209 1.209c.269.537 0 1.074-.537 1.208-.806.269-.806 1.477 0 1.611.134 0 .269.134.403.134l.268.269c0 .134.135.269 0 .403 0 .134 0 .268-.134.403a.89.89 0 001.209 1.208c.134-.134.268-.134.402-.134h.403c.134 0 .269.134.269.268 0 .135.134.269.134.403.268.806 1.477.806 1.611 0 0-.134.134-.268.134-.403l.269-.268c.134-.135.268-.135.403 0 .134 0 .268 0 .402.134a.89.89 0 001.209-1.208c-.134-.135-.134-.269-.134-.403v-.403c0-.134.134-.268.268-.268s.269-.135.403-.135c.805-.268.805-1.477 0-1.611-.134 0-.269-.134-.403-.134l-.268-.269c0-.134-.135-.268 0-.403 0-.134 0-.268.134-.402a.89.89 0 00-1.209-1.209c-.134.134-.268.134-.402.134h-.403a.289.289 0 01-.269-.268c0-.268 0-.403-.134-.403zm-.805 5.37c.402 0 .805-.133 1.208-.536.268-.269.537-.672.537-1.209 0-.402-.134-.805-.537-1.208-.269-.269-.672-.537-1.209-.537-.402 0-.805.134-1.208.537-.268.268-.537.671-.537 1.208 0 .403.134.806.537 1.209s.806.537 1.209.537z" clip-rule="evenodd"/>
  <path stroke-linecap="round" stroke-linejoin="round" d="M20.084 7.046L11.482 2.88 2.88 7.046m17.204 0l-8.602 4.167m2.946 8.99l-2.946 1.427m8.602-14.584v3.844m-8.602.323L2.88 7.046m8.602 4.167V21.63M2.88 7.046v10.417l8.602 4.167"/>
</svg>
