<svg xmlns="http://www.w3.org/2000/svg" fill="none" viewBox="0 0 24 24" stroke-width="2" stroke="currentColor" aria-hidden="true" className="outline-icon">
  <path stroke-linecap="round" stroke-linejoin="round" d="M9.063 6.712h5.874M14.937 17.288v-3.173" class="highlight"/>
  <path stroke-linecap="round" stroke-linejoin="round" d="M12 17.288h.01M9.063 17.288h.01M9.063 14.115h.01M12 14.115h.01M14.937 10.943h.01M12 10.943h.01M9.063 10.943h.01M7.105 21.518h9.79c.522 0 1.018-.226 1.384-.62.365-.395.574-.931.574-1.495V4.597c0-.564-.209-1.1-.574-1.494a1.886 1.886 0 00-1.384-.62h-9.79c-.522 0-1.018.225-1.384.62-.365.395-.574.93-.574 1.494v14.806c0 .564.209 1.1.574 1.494.366.395.862.62 1.384.62z"/>
</svg>
