<svg xmlns="http://www.w3.org/2000/svg" fill="none" viewBox="0 0 24 24" stroke-width="2" stroke="currentColor" aria-hidden="true">
  <path stroke-linecap="round" stroke-linejoin="round" d="M2.482 9.902h19.036"/>
  <path stroke-linecap="round" stroke-linejoin="round" d="M6.712 15.147H7.77M12 15.147h1.057"/>
  <path stroke-linecap="round" stroke-linejoin="round" d="M5.655 19.343h12.69c.846 0 1.65-.336 2.242-.923a3.13 3.13 0 00.93-2.224V7.804a3.13 3.13 0 00-.93-2.223 3.183 3.183 0 00-2.242-.924H5.655c-.846 0-1.65.336-2.242.924a3.13 3.13 0 00-.93 2.223v8.392c0 .84.338 1.636.93 2.224a3.183 3.183 0 002.242.923z"/>
</svg>
