<svg xmlns="http://www.w3.org/2000/svg" fill="none" stroke="currentColor" viewBox="0 0 24 24" stroke-width="2" aria-hidden="true">
  <path stroke-linecap="round" stroke-linejoin="round" stroke-width="2" d="M9.063 12h5.874M9.063 16.23h5.874" class="highlight"/>
  <path stroke-linecap="round" stroke-linejoin="round" stroke-width="2" d="M16.895 21.518h-9.79a1.886 1.886 0 01-1.384-.62 2.202 2.202 0 01-.574-1.495V4.597c0-.564.209-1.1.574-1.494.366-.395.862-.62 1.384-.62h5.47c.26 0 .508.112.691.31l5.3 5.724c.183.198.287.466.287.748v10.138c0 .564-.209 1.1-.574 1.494-.366.395-.862.62-1.384.62v0z"/>
</svg>
