<svg xmlns="http://www.w3.org/2000/svg" fill="none" viewBox="0 0 24 24" stroke-width="2" stroke="currentColor" aria-hidden="true">
  <path stroke-linecap="round" stroke-linejoin="round" d="M10.386 5.104H5.078c-.561 0-1.11.23-1.505.625a2.146 2.146 0 00-.626 1.506v11.687c0 .561.23 1.11.626 1.505.395.396.944.626 1.505.626h11.688c.561 0 1.11-.23 1.505-.626.396-.395.625-.944.625-1.505v-5.32"/>
  <path stroke-linecap="round" stroke-linejoin="round" d="M16.772 3.923c.191-.204.434-.37.689-.472.255-.115.536-.166.817-.178.28 0 .56.05.829.153.268.102.498.268.702.46.204.203.357.433.459.7.102.256.166.537.153.83 0 .28-.064.562-.179.817a2.138 2.138 0 01-.472.689l-9.122 9.135H7.636v-3.01l9.136-9.124z" class="highlight"/>
</svg>
