<svg xmlns="http://www.w3.org/2000/svg" fill="none" viewBox="0 0 24 24" stroke-width="2" stroke="currentColor" aria-hidden="true" className="outline-icon">
  <path d="M18.703 13.269c-.213-.86-1.465-.86-1.677 0a.767.767 0 01-.174.343.744.744 0 01-.332.225.976.976 0 01-.4.066c-.146 0-.253-.053-.386-.12-.772-.448-1.65.397-1.185 1.164.306.476.04 1.123-.532 1.255-.879.212-.879 1.427 0 1.639a.905.905 0 01.36.171c.106.08.172.199.226.318a.931.931 0 01.066.383.762.762 0 01-.12.37c-.466.766.413 1.612 1.185 1.163a.883.883 0 01.386-.12c.133 0 .28 0 .4.067.12.053.226.132.332.224.08.106.147.225.174.344.212.859 1.464.859 1.677 0a.766.766 0 01.173-.343c.08-.106.2-.172.333-.225a.977.977 0 01.399-.066c.146 0 .253.053.386.119.772.449 1.65-.397 1.185-1.163a.868.868 0 01-.12-.37c0-.132 0-.264.067-.383.053-.12.133-.225.226-.317a.905.905 0 01.36-.172c.878-.212.878-1.427 0-1.639a.906.906 0 01-.36-.172.776.776 0 01-.226-.317.932.932 0 01-.067-.383.76.76 0 01.12-.37c.466-.766-.413-1.612-1.185-1.163a.884.884 0 01-.386.12c-.133 0-.28 0-.4-.067a1.339 1.339 0 01-.332-.225.931.931 0 01-.173-.343v-.013zm-.839 5.404c.453 0 .879-.172 1.185-.475.32-.304.492-.74.492-1.163 0-.423-.173-.86-.492-1.163a1.725 1.725 0 00-1.185-.476 1.7 1.7 0 00-1.185.476c-.32.304-.492.74-.492 1.163 0 .422.173.859.492 1.163.32.303.746.475 1.185.475z" class="highlight" clip-rule="evenodd"/>
  <path stroke-linecap="round" stroke-linejoin="round" d="M11.807 14.339a7.53 7.53 0 00-2.183-.33c-1.904 0-3.728.74-5.072 2.06-1.345 1.322-2.104 3.093-2.104 4.956h10.144m1.119-14.02c0 1.07-.44 2.088-1.199 2.828a4.125 4.125 0 01-2.902 1.176 4.148 4.148 0 01-2.902-1.176A4 4 0 015.51 7.005c0-1.057.44-2.088 1.198-2.828A4.125 4.125 0 019.61 3.001c1.092 0 2.13.423 2.902 1.176a4 4 0 011.199 2.828v0z"/>
</svg>
