<svg width="21" height="20" viewBox="0 0 21 20" fill="none" xmlns="http://www.w3.org/2000/svg">
<g clip-path="url(#clip0_1643_16883)">
<path d="M15.1367 9.73073L10.7817 5.37304C10.5965 5.18774 10.3768 5.09509 10.1194 5.09509C9.86203 5.09509 9.64232 5.18774 9.45713 5.37304L3.08546 11.7329C2.90027 11.9261 2.80768 12.1538 2.80768 12.4097C2.80768 12.6657 2.90027 12.8871 3.08546 13.0724L7.44205 17.4317C7.61625 17.606 7.8344 17.6939 8.09648 17.6939C8.35857 17.6939 8.58613 17.606 8.78073 17.4317L15.1383 11.0561C15.3141 10.8708 15.4004 10.6478 15.4004 10.3856C15.4004 10.1233 15.3125 9.90661 15.1383 9.73073H15.1367ZM10.4427 7.71285L5.76439 12.4097C5.67179 12.5024 5.56194 12.5495 5.43325 12.5495C5.30456 12.5495 5.1947 12.5024 5.10054 12.4097C5.00952 12.3171 4.96243 12.204 4.96243 12.0705C4.96243 11.9371 5.00952 11.824 5.10054 11.7329L9.77886 7.05017C9.87145 6.95752 9.98131 6.91198 10.1116 6.91198C10.2418 6.91198 10.3501 6.95909 10.4427 7.05017C10.5353 7.13182 10.5808 7.24018 10.5808 7.37365C10.5808 7.50713 10.5353 7.6202 10.4427 7.71128V7.71285Z" class="highlight"/>
<path d="M16.6292 8.54512C16.7736 8.68802 16.8458 8.85919 16.8458 9.05391C16.8458 9.24863 16.7736 9.41823 16.6292 9.5627C16.4958 9.7056 16.331 9.77784 16.1364 9.77784C15.9418 9.77784 15.7723 9.7056 15.6279 9.5627L10.9496 4.88152C10.8068 4.73705 10.7346 4.56745 10.7346 4.37273C10.7346 4.17801 10.8052 4.00684 10.9496 3.86394C11.083 3.72104 11.2478 3.6488 11.4424 3.6488C11.637 3.6488 11.8065 3.72104 11.9509 3.86394L16.6292 8.54512Z" />
<path d="M17.9836 3.5389C17.8392 3.67238 17.6728 3.73833 17.4829 3.73833C17.2931 3.73833 17.1267 3.67238 16.9823 3.5389C17.1769 3.74462 17.3197 3.97703 17.4139 4.23142C17.5049 4.48896 17.541 4.76063 17.5206 5.048C17.5002 5.33537 17.428 5.6196 17.3056 5.90226C17.1832 6.18492 17.0121 6.44874 16.7971 6.69528V6.71099C16.8991 6.80364 16.9509 6.91356 16.9509 7.04233C16.9509 7.1711 16.8991 7.28102 16.7971 7.37367C16.7045 7.46475 16.5915 7.51186 16.4581 7.51186C16.3247 7.51186 16.2118 7.46475 16.1192 7.37367L13.1185 4.37118C13.0353 4.27853 12.9961 4.16547 12.9961 4.03199C12.9961 3.89851 13.0432 3.78545 13.1342 3.69437C13.2174 3.59072 13.3241 3.5389 13.4575 3.5389C13.5909 3.5389 13.7023 3.59072 13.7965 3.69437V3.71007C14.0429 3.48394 14.3081 3.30963 14.5969 3.18715C14.8841 3.06466 15.1713 2.99399 15.4584 2.97829C15.7456 2.96259 16.0203 2.99871 16.2824 3.08664C16.5445 3.17458 16.7767 3.31434 16.9823 3.51064C16.8379 3.36616 16.7673 3.19971 16.7673 3.0097C16.7673 2.81969 16.8379 2.65794 16.9823 2.52446C17.1251 2.37999 17.2931 2.30933 17.4829 2.30933C17.6728 2.30933 17.8392 2.37999 17.9836 2.52446C18.117 2.66893 18.186 2.83696 18.1907 3.03325C18.197 3.22797 18.1264 3.39914 17.9836 3.54047V3.5389Z" class="highlight"/>
</g>
<defs>
<clipPath id="clip0_1643_16883">
<rect width="15.3846" height="15.3846" fill="white" transform="translate(2.80768 2.30774)"/>
</clipPath>
</defs>
</svg>
