<svg width="17" height="16" viewBox="0 0 17 16" fill="none" xmlns="http://www.w3.org/2000/svg">
<g clip-path="url(#clip0_1643_16885)">
<path d="M13.1367 7.73073L8.78169 3.37304C8.5965 3.18774 8.37679 3.09509 8.11941 3.09509C7.86203 3.09509 7.64232 3.18774 7.45713 3.37304L1.08546 9.73292C0.900272 9.92607 0.807678 10.1538 0.807678 10.4097C0.807678 10.6657 0.900272 10.8871 1.08546 11.0724L5.44205 15.4317C5.61625 15.606 5.8344 15.6939 6.09648 15.6939C6.35857 15.6939 6.58613 15.606 6.78073 15.4317L13.1383 9.0561C13.3141 8.8708 13.4004 8.64781 13.4004 8.38557C13.4004 8.12332 13.3125 7.90661 13.1383 7.73073H13.1367ZM8.4427 5.71285L3.76439 10.4097C3.67179 10.5024 3.56194 10.5495 3.43325 10.5495C3.30456 10.5495 3.1947 10.5024 3.10054 10.4097C3.00952 10.3171 2.96243 10.204 2.96243 10.0705C2.96243 9.93706 3.00952 9.824 3.10054 9.73292L7.77886 5.05017C7.87145 4.95752 7.98131 4.91198 8.11156 4.91198C8.24182 4.91198 8.35011 4.95909 8.4427 5.05017C8.5353 5.13182 8.58081 5.24018 8.58081 5.37365C8.58081 5.50713 8.5353 5.6202 8.4427 5.71128V5.71285Z" class="fill-highlight" />
<path d="M14.6292 6.54512C14.7736 6.68802 14.8458 6.85919 14.8458 7.05391C14.8458 7.24863 14.7736 7.41823 14.6292 7.5627C14.4958 7.7056 14.331 7.77784 14.1364 7.77784C13.9418 7.77784 13.7723 7.7056 13.6279 7.5627L8.94962 2.88152C8.80681 2.73705 8.73462 2.56745 8.73462 2.37273C8.73462 2.17801 8.80524 2.00684 8.94962 1.86394C9.08302 1.72104 9.24781 1.6488 9.44241 1.6488C9.63701 1.6488 9.8065 1.72104 9.95089 1.86394L14.6292 6.54512Z" class="fill-highlight"/>
<path d="M15.9836 1.5389C15.8392 1.67238 15.6728 1.73833 15.4829 1.73833C15.2931 1.73833 15.1267 1.67238 14.9823 1.5389C15.1769 1.74462 15.3197 1.97703 15.4139 2.23142C15.5049 2.48896 15.541 2.76063 15.5206 3.048C15.5002 3.33537 15.428 3.6196 15.3056 3.90226C15.1832 4.18492 15.0121 4.44874 14.7971 4.69528V4.71099C14.8991 4.80364 14.9509 4.91356 14.9509 5.04233C14.9509 5.1711 14.8991 5.28102 14.7971 5.37367C14.7045 5.46475 14.5915 5.51186 14.4581 5.51186C14.3247 5.51186 14.2118 5.46475 14.1192 5.37367L11.1185 2.37118C11.0353 2.27853 10.9961 2.16547 10.9961 2.03199C10.9961 1.89851 11.0432 1.78545 11.1342 1.69437C11.2174 1.59072 11.3241 1.5389 11.4575 1.5389C11.5909 1.5389 11.7023 1.59072 11.7965 1.69437V1.71007C12.0429 1.48394 12.3081 1.30963 12.5969 1.18715C12.8841 1.06466 13.1713 0.993994 13.4584 0.978291C13.7456 0.962587 14.0203 0.998705 14.2824 1.08664C14.5445 1.17458 14.7767 1.31434 14.9823 1.51064C14.8379 1.36616 14.7673 1.19971 14.7673 1.0097C14.7673 0.819686 14.8379 0.657942 14.9823 0.524463C15.1251 0.379991 15.2931 0.309326 15.4829 0.309326C15.6728 0.309326 15.8392 0.379991 15.9836 0.524463C16.117 0.668934 16.186 0.83696 16.1907 1.03325C16.197 1.22797 16.1264 1.39914 15.9836 1.54047V1.5389Z" class="fill-highlight" />
</g>
<defs>
<clipPath id="clip0_1643_16885">
<rect width="15.3846" height="15.3846" fill="white" transform="translate(0.807678 0.307739)"/>
</clipPath>
</defs>
</svg>
