<svg width="14" height="18" viewBox="0 0 14 18" fill="none" xmlns="http://www.w3.org/2000/svg">
<g clip-path="url(#clip0_1643_16898)">
<path d="M5.91428 3.51904H8.05556C8.41776 3.34312 9.19899 2.90497 9.60026 2.06185C9.68194 1.88427 10.0619 1.09261 9.71922 0.812122C9.36412 0.52168 8.72493 1.17559 7.57794 1.07269C6.65467 0.989707 6.55702 0.516701 5.5574 0.500104C5.34433 0.496785 4.39975 0.481848 4.12988 0.968131C4.00736 1.19219 4.06951 1.4428 4.12988 1.59217L5.91428 3.51738V3.51904Z" class="highlight" />
<path d="M14 12.0463C14 9.80409 12.1286 6.80838 9.67838 5.4209H4.32162C1.8714 6.80838 0 9.80575 0 12.0463C0.00177552 12.8861 0.246798 13.7109 0.704883 14.4329C0.57527 14.5723 0.5078 14.72 0.5078 14.8711C0.5078 15.3507 1.20025 15.7855 2.32594 16.1059C3.56525 16.9739 5.20406 17.5 7.00089 17.5C8.79772 17.5 10.4365 16.9722 11.6758 16.1059C12.8015 15.7855 13.494 15.3507 13.494 14.8711C13.494 14.72 13.4247 14.574 13.2969 14.4329C13.755 13.7109 14 12.8861 14.0018 12.0463H14ZM9.64819 11.0605C9.67305 11.1202 9.69436 11.1783 9.71389 11.2347C9.73342 11.2912 9.74407 11.3526 9.74407 11.4206C9.74407 11.5252 9.71566 11.6081 9.65885 11.6679C9.60203 11.7276 9.53101 11.7575 9.44223 11.7575H7.56373V12.5459H9.62156C9.64642 12.584 9.66772 12.6371 9.68725 12.7085C9.70679 12.7799 9.71744 12.8463 9.71744 12.906C9.71744 13.0106 9.68903 13.0936 9.63399 13.1533C9.57717 13.213 9.5097 13.2429 9.4298 13.2429H7.56373V14.8976C7.52289 14.9125 7.46075 14.9275 7.3773 14.9424C7.29207 14.9574 7.20685 14.9657 7.11807 14.9657C6.75764 14.9657 6.57654 14.8312 6.57654 14.5607V13.2446H4.46899C4.38909 13.155 4.34826 13.0338 4.34826 12.8844C4.34826 12.75 4.37844 12.6587 4.43881 12.6139C4.49918 12.5691 4.56487 12.5459 4.63767 12.5459H6.57654V11.7575H4.46899C4.38909 11.6679 4.34826 11.5484 4.34826 11.3974C4.34826 11.2696 4.37844 11.1816 4.43881 11.1335C4.49918 11.0854 4.56842 11.0605 4.65009 11.0605H6.07051C5.89474 10.8132 5.71541 10.5609 5.53431 10.307C5.3532 10.0514 5.18275 9.80243 5.02295 9.55846C4.86316 9.31448 4.71224 9.08047 4.57197 8.85476C4.43171 8.62904 4.30919 8.42656 4.20444 8.24732C4.25948 8.17927 4.33228 8.11454 4.42105 8.04982C4.50983 7.98675 4.61458 7.95355 4.73354 7.95355C4.87026 7.95355 4.98034 7.99007 5.06379 8.05977C5.14902 8.13114 5.23424 8.24566 5.32302 8.40333L7.04528 11.0256H7.10564C7.2974 10.7484 7.46785 10.4912 7.61699 10.2555C7.76614 10.0198 7.90818 9.78749 8.0449 9.55846C8.18161 9.32942 8.32188 9.09541 8.46569 8.85476C8.60951 8.6141 8.77464 8.34524 8.95929 8.04484C9.03209 8.00666 9.09601 7.98343 9.15105 7.97181C9.20786 7.96019 9.27888 7.95521 9.36766 7.95521C9.51148 7.95521 9.61801 7.99173 9.68725 8.06143C9.75472 8.1328 9.79023 8.21744 9.79023 8.31536C9.79023 8.37511 9.74052 8.49461 9.63932 8.67551C9.53811 8.85476 9.4085 9.07383 9.2487 9.32776C9.0889 9.58335 8.9078 9.86052 8.70717 10.1609C8.50653 10.4613 8.30235 10.7617 8.09283 11.0605H9.64642H9.64819Z" class="highlight"/>
<path d="M8.75511 4.05005H5.2449C4.99583 4.05005 4.79391 4.23879 4.79391 4.47161C4.79391 4.70442 4.99583 4.89316 5.2449 4.89316H8.75511C9.00418 4.89316 9.20609 4.70442 9.20609 4.47161C9.20609 4.23879 9.00418 4.05005 8.75511 4.05005Z" fill="#8D95A4"/>
</g>
<defs>
<clipPath id="clip0_1643_16898">
<rect width="14" height="17" fill="white" transform="translate(0 0.5)"/>
</clipPath>
</defs>
</svg>
