<svg width="20" height="20" viewBox="0 0 20 20" fill="none" xmlns="http://www.w3.org/2000/svg">
<g clip-path="url(#clip0_1643_16896)">
<path d="M8.91428 4.51904H11.0556C11.4178 4.34312 12.199 3.90497 12.6003 3.06185C12.6819 2.88427 13.0619 2.09261 12.7192 1.81212C12.3641 1.52168 11.7249 2.17559 10.5779 2.07269C9.65467 1.98971 9.55702 1.5167 8.5574 1.5001C8.34433 1.49678 7.39975 1.48185 7.12988 1.96813C7.00736 2.19219 7.06951 2.4428 7.12988 2.59217L8.91428 4.51738V4.51904Z" class="highlight"/>
<path d="M17 13.0463C17 10.8041 15.1286 7.80838 12.6784 6.4209H7.32162C4.8714 7.80838 3 10.8057 3 13.0463C3.00178 13.8861 3.2468 14.7109 3.70488 15.4329C3.57527 15.5723 3.5078 15.72 3.5078 15.8711C3.5078 16.3507 4.20025 16.7855 5.32594 17.1059C6.56525 17.9739 8.20406 18.5 10.0009 18.5C11.7977 18.5 13.4365 17.9722 14.6758 17.1059C15.8015 16.7855 16.494 16.3507 16.494 15.8711C16.494 15.72 16.4247 15.574 16.2969 15.4329C16.755 14.7109 17 13.8861 17.0018 13.0463H17ZM12.6482 12.0605C12.673 12.1202 12.6944 12.1783 12.7139 12.2347C12.7334 12.2912 12.7441 12.3526 12.7441 12.4206C12.7441 12.5252 12.7157 12.6081 12.6588 12.6679C12.602 12.7276 12.531 12.7575 12.4422 12.7575H10.5637V13.5459H12.6216C12.6464 13.584 12.6677 13.6371 12.6873 13.7085C12.7068 13.7799 12.7174 13.8463 12.7174 13.906C12.7174 14.0106 12.689 14.0936 12.634 14.1533C12.5772 14.213 12.5097 14.2429 12.4298 14.2429H10.5637V15.8976C10.5229 15.9125 10.4607 15.9275 10.3773 15.9424C10.2921 15.9574 10.2068 15.9657 10.1181 15.9657C9.75764 15.9657 9.57654 15.8312 9.57654 15.5607V14.2446H7.46899C7.38909 14.155 7.34826 14.0338 7.34826 13.8844C7.34826 13.75 7.37844 13.6587 7.43881 13.6139C7.49918 13.5691 7.56487 13.5459 7.63767 13.5459H9.57654V12.7575H7.46899C7.38909 12.6679 7.34826 12.5484 7.34826 12.3974C7.34826 12.2696 7.37844 12.1816 7.43881 12.1335C7.49918 12.0854 7.56842 12.0605 7.65009 12.0605H9.07051C8.89474 11.8132 8.71541 11.5609 8.53431 11.307C8.3532 11.0514 8.18275 10.8024 8.02295 10.5585C7.86316 10.3145 7.71224 10.0805 7.57197 9.85476C7.43171 9.62904 7.30919 9.42656 7.20444 9.24732C7.25948 9.17927 7.33228 9.11454 7.42105 9.04982C7.50983 8.98675 7.61458 8.95355 7.73354 8.95355C7.87026 8.95355 7.98034 8.99007 8.06379 9.05977C8.14902 9.13114 8.23424 9.24566 8.32302 9.40333L10.0453 12.0256H10.1056C10.2974 11.7484 10.4679 11.4912 10.617 11.2555C10.7661 11.0198 10.9082 10.7875 11.0449 10.5585C11.1816 10.3294 11.3219 10.0954 11.4657 9.85476C11.6095 9.6141 11.7746 9.34524 11.9593 9.04484C12.0321 9.00666 12.096 8.98343 12.151 8.97181C12.2079 8.96019 12.2789 8.95521 12.3677 8.95521C12.5115 8.95521 12.618 8.99173 12.6873 9.06143C12.7547 9.1328 12.7902 9.21744 12.7902 9.31536C12.7902 9.37511 12.7405 9.49461 12.6393 9.67551C12.5381 9.85476 12.4085 10.0738 12.2487 10.3278C12.0889 10.5834 11.9078 10.8605 11.7072 11.1609C11.5065 11.4613 11.3023 11.7617 11.0928 12.0605H12.6464H12.6482Z" class="highlight"/>
<path d="M11.7551 5.05005H8.2449C7.99583 5.05005 7.79391 5.23879 7.79391 5.47161C7.79391 5.70442 7.99583 5.89316 8.2449 5.89316H11.7551C12.0042 5.89316 12.2061 5.70442 12.2061 5.47161C12.2061 5.23879 12.0042 5.05005 11.7551 5.05005Z" />
</g>
<defs>
<clipPath id="clip0_1643_16896">
<rect width="14" height="17" fill="white" transform="translate(3 1.5)"/>
</clipPath>
</defs>
</svg>
