<svg width="20" height="20" viewBox="0 0 20 20" fill="none" xmlns="http://www.w3.org/2000/svg">
<g clip-path="url(#clip0_1245_27725)">
<path fill-rule="evenodd" clip-rule="evenodd" d="M10 2.5C9.73402 2.5 9.48082 2.60486 9.29412 2.79412C9.10742 2.98082 9 3.23657 9 3.5V4.5C9 4.76598 9.10486 5.01918 9.29412 5.20588C9.48082 5.39258 9.73657 5.5 10 5.5C10.2634 5.5 10.5192 5.39514 10.7059 5.20588C10.8926 5.01918 11 4.76343 11 4.5V3.5C11 3.23402 10.8951 2.98082 10.7059 2.79412C10.5192 2.60742 10.2634 2.5 10 2.5Z" />
<path fill-rule="evenodd" clip-rule="evenodd" d="M17.4143 5.08568C17.0384 4.70972 16.5294 4.5 16 4.5H13C13 5.2954 12.6829 6.05754 12.1202 6.6202C11.5575 7.18286 10.7954 7.5 10 7.5C9.2046 7.5 8.44246 7.18286 7.8798 6.6202C7.31714 6.05754 7 5.2954 7 4.5H4C3.47059 4.5 2.96164 4.70972 2.58568 5.08568C2.20972 5.46164 2 5.97059 2 6.5V15.5C2 16.0294 2.20972 16.5384 2.58568 16.9143C2.96164 17.2903 3.47059 17.5 4 17.5H16C16.5294 17.5 17.0384 17.2903 17.4143 16.9143C17.7903 16.5384 18 16.0294 18 15.5V6.5C18 5.97059 17.7903 5.46164 17.4143 5.08568ZM5.4399 8.9399C5.72123 8.65857 6.1023 8.5 6.50128 8.5C6.90026 8.5 7.28133 8.65857 7.56266 8.9399C7.84399 9.22123 8.00256 9.6023 8.00256 10.0013C8.00256 10.4003 7.84399 10.7813 7.56266 11.0627C7.28133 11.344 6.90026 11.5026 6.50128 11.5026C6.1023 11.5026 5.72123 11.344 5.4399 11.0627C5.15857 10.7813 5 10.4003 5 10.0013C5 9.6023 5.15857 9.22123 5.4399 8.9399ZM8.95141 15.5H4.05115C3.97698 15.1368 3.98465 14.7609 4.07417 14.4028C4.16368 14.0422 4.32992 13.7072 4.56522 13.4207C4.80051 13.1343 5.09463 12.9015 5.42967 12.743C5.76471 12.5844 6.13043 12.5026 6.50128 12.5026C6.87212 12.5026 7.23785 12.5844 7.57289 12.743C7.90793 12.9015 8.20205 13.1317 8.43734 13.4207C8.67263 13.7072 8.83887 14.0422 8.92839 14.4028C9.0179 14.7634 9.02558 15.1368 8.95141 15.5ZM14.7084 14.2059C14.5217 14.3926 14.266 14.5 14.0026 14.5H12.0026C11.7366 14.5 11.4834 14.3951 11.2967 14.2059C11.11 14.0166 11.0026 13.7634 11.0026 13.5C11.0026 13.2366 11.1074 12.9808 11.2967 12.7941C11.4834 12.6074 11.7391 12.5 12.0026 12.5H14.0026C14.2685 12.5 14.5217 12.6049 14.7084 12.7941C14.8951 12.9808 15.0026 13.2366 15.0026 13.5C15.0026 13.7634 14.8977 14.0192 14.7084 14.2059ZM15.7084 11.2059C15.5217 11.3926 15.266 11.5 15.0026 11.5H12.0026C11.7366 11.5 11.4834 11.3951 11.2967 11.2059C11.11 11.0192 11.0026 10.7634 11.0026 10.5C11.0026 10.2366 11.1074 9.98082 11.2967 9.79412C11.4834 9.60742 11.7391 9.5 12.0026 9.5H15.0026C15.2685 9.5 15.5217 9.60486 15.7084 9.79412C15.8951 9.98082 16.0026 10.2366 16.0026 10.5C16.0026 10.7634 15.8977 11.0192 15.7084 11.2059Z" class="highlight"/>
</g>
<defs>
<clipPath id="clip0_1245_27725">
<rect width="16" height="15" fill="white" transform="translate(2 2.5)"/>
</clipPath>
</defs>
</svg>
