<svg width="16" height="16" viewBox="0 0 16 16" fill="none" xmlns="http://www.w3.org/2000/svg">
<g clip-path="url(#clip0_1245_27727)">
<path fill-rule="evenodd" clip-rule="evenodd" d="M8 0.5C7.73402 0.5 7.48082 0.604859 7.29412 0.794118C7.10742 0.980818 7 1.23657 7 1.5V2.5C7 2.76598 7.10486 3.01918 7.29412 3.20588C7.48082 3.39258 7.73657 3.5 8 3.5C8.26343 3.5 8.51918 3.39514 8.70588 3.20588C8.89258 3.01918 9 2.76343 9 2.5V1.5C9 1.23402 8.89514 0.980818 8.70588 0.794118C8.51918 0.607417 8.26343 0.5 8 0.5Z" fill="#8D95A4"/>
<path fill-rule="evenodd" clip-rule="evenodd" d="M15.4143 3.08568C15.0384 2.70972 14.5294 2.5 14 2.5H11C11 3.2954 10.6829 4.05754 10.1202 4.6202C9.55754 5.18286 8.7954 5.5 8 5.5C7.2046 5.5 6.44246 5.18286 5.8798 4.6202C5.31714 4.05754 5 3.2954 5 2.5H2C1.47059 2.5 0.961637 2.70972 0.585678 3.08568C0.209719 3.46164 0 3.97059 0 4.5V13.5C0 14.0294 0.209719 14.5384 0.585678 14.9143C0.961637 15.2903 1.47059 15.5 2 15.5H14C14.5294 15.5 15.0384 15.2903 15.4143 14.9143C15.7903 14.5384 16 14.0294 16 13.5V4.5C16 3.97059 15.7903 3.46164 15.4143 3.08568ZM3.4399 6.9399C3.72123 6.65857 4.1023 6.5 4.50128 6.5C4.90026 6.5 5.28133 6.65857 5.56266 6.9399C5.84399 7.22123 6.00256 7.6023 6.00256 8.00128C6.00256 8.40026 5.84399 8.78133 5.56266 9.06266C5.28133 9.34399 4.90026 9.50256 4.50128 9.50256C4.1023 9.50256 3.72123 9.34399 3.4399 9.06266C3.15857 8.78133 3 8.40026 3 8.00128C3 7.6023 3.15857 7.22123 3.4399 6.9399V6.9399ZM6.95141 13.5H2.05115C1.97698 13.1368 1.98465 12.7609 2.07417 12.4028C2.16368 12.0422 2.32992 11.7072 2.56522 11.4207C2.80051 11.1343 3.09463 10.9015 3.42967 10.743C3.76471 10.5844 4.13043 10.5026 4.50128 10.5026C4.87212 10.5026 5.23785 10.5844 5.57289 10.743C5.90793 10.9015 6.20205 11.1317 6.43734 11.4207C6.67263 11.7072 6.83887 12.0422 6.92839 12.4028C7.0179 12.7634 7.02558 13.1368 6.95141 13.5V13.5ZM12.7084 12.2059C12.5217 12.3926 12.266 12.5 12.0026 12.5H10.0026C9.73657 12.5 9.48338 12.3951 9.29667 12.2059C9.10997 12.0166 9.00256 11.7634 9.00256 11.5C9.00256 11.2366 9.10742 10.9808 9.29667 10.7941C9.48338 10.6074 9.73913 10.5 10.0026 10.5H12.0026C12.2685 10.5 12.5217 10.6049 12.7084 10.7941C12.8951 10.9808 13.0026 11.2366 13.0026 11.5C13.0026 11.7634 12.8977 12.0192 12.7084 12.2059ZM13.7084 9.20588C13.5217 9.39258 13.266 9.5 13.0026 9.5H10.0026C9.73657 9.5 9.48338 9.39514 9.29667 9.20588C9.10997 9.01918 9.00256 8.76343 9.00256 8.5C9.00256 8.23657 9.10742 7.98082 9.29667 7.79412C9.48338 7.60742 9.73913 7.5 10.0026 7.5H13.0026C13.2685 7.5 13.5217 7.60486 13.7084 7.79412C13.8951 7.98082 14.0026 8.23657 14.0026 8.5C14.0026 8.76343 13.8977 9.01918 13.7084 9.20588V9.20588Z" class="fill-highlight" />
</g>
<defs>
<clipPath id="clip0_1245_27727">
<rect width="16" height="15" fill="white" transform="translate(0 0.5)"/>
</clipPath>
</defs>
</svg>
