<svg width="20" height="20" viewBox="0 0 20 20" fill="none" xmlns="http://www.w3.org/2000/svg">
<g clip-path="url(#clip0_1643_16889)">
<path fill-rule="evenodd" clip-rule="evenodd" d="M15.4148 2.58519C15.0401 2.21053 14.5317 2 14 2H6C5.47012 2 4.96164 2.21053 4.58519 2.58519C4.21053 2.96164 4 3.47012 4 4V16C4 16.5299 4.21053 17.0384 4.58519 17.4148C4.95986 17.7895 5.46833 18 6 18H14C14.5299 18 15.0384 17.7895 15.4148 17.4148C15.7895 17.0401 16 16.5317 16 16V4C16 3.47012 15.7895 2.96164 15.4148 2.58519ZM7.71632 15.7074C7.52899 15.8947 7.27386 16 7.00981 16H6.99911C6.73327 16 6.47993 15.8947 6.2926 15.7074C6.10526 15.5201 6 15.2649 6 15.0009C6 14.7368 6.10526 14.4817 6.2926 14.2944C6.47993 14.107 6.73506 14.0018 6.99911 14.0018H7.00981C7.27565 14.0018 7.52899 14.107 7.71632 14.2944C7.90366 14.4817 8.00892 14.7368 8.00892 15.0009C8.00892 15.2649 7.90366 15.5201 7.71632 15.7074ZM7.71632 12.7083C7.52899 12.8956 7.27386 13.0009 7.00981 13.0009H6.99911C6.73327 13.0009 6.47993 12.8956 6.2926 12.7083C6.10526 12.521 6 12.2658 6 12.0018C6 11.7377 6.10526 11.4826 6.2926 11.2953C6.47993 11.1079 6.73506 11.0027 6.99911 11.0027H7.00981C7.27565 11.0027 7.52899 11.1079 7.71632 11.2953C7.90366 11.4826 8.00892 11.7377 8.00892 12.0018C8.00892 12.2658 7.90366 12.521 7.71632 12.7083ZM7.71632 9.70919C7.52899 9.89652 7.27386 10.0018 7.00981 10.0018H6.99911C6.73327 10.0018 6.47993 9.89652 6.2926 9.70919C6.10526 9.52185 6 9.26673 6 9.00268C6 8.73863 6.10526 8.4835 6.2926 8.29616C6.47993 8.10883 6.73506 8.00357 6.99911 8.00357H7.00981C7.27565 8.00357 7.52899 8.10883 7.71632 8.29616C7.90366 8.4835 8.00892 8.73863 8.00892 9.00268C8.00892 9.26673 7.90366 9.52185 7.71632 9.70919ZM10.7154 15.7092C10.5281 15.8965 10.273 16.0018 10.0089 16.0018H9.99822C9.73238 16.0018 9.47904 15.8965 9.2917 15.7092C9.10437 15.5219 8.99911 15.2667 8.99911 15.0027C8.99911 14.7386 9.10437 14.4835 9.2917 14.2962C9.47904 14.1088 9.73417 14.0036 9.99822 14.0036H10.0089C10.2748 14.0036 10.5281 14.1088 10.7154 14.2962C10.9028 14.4835 11.008 14.7386 11.008 15.0027C11.008 15.2667 10.9028 15.5219 10.7154 15.7092ZM10.7154 12.7101C10.5281 12.8974 10.273 13.0027 10.0089 13.0027H9.99822C9.73238 13.0027 9.47904 12.8974 9.2917 12.7101C9.10437 12.5227 8.99911 12.2676 8.99911 12.0036C8.99911 11.7395 9.10437 11.4844 9.2917 11.2971C9.47904 11.1097 9.73417 11.0045 9.99822 11.0045H10.0089C10.2748 11.0045 10.5281 11.1097 10.7154 11.2971C10.9028 11.4844 11.008 11.7395 11.008 12.0036C11.008 12.2676 10.9028 12.5227 10.7154 12.7101ZM10.7154 9.71097C10.5281 9.8983 10.273 10.0036 10.0089 10.0036H9.99822C9.73238 10.0036 9.47904 9.8983 9.2917 9.71097C9.10437 9.52364 8.99911 9.26851 8.99911 9.00446C8.99911 8.74041 9.10437 8.48528 9.2917 8.29795C9.47904 8.11062 9.73417 8.00535 9.99822 8.00535H10.0089C10.2748 8.00535 10.5281 8.11062 10.7154 8.29795C10.9028 8.48528 11.008 8.74041 11.008 9.00446C11.008 9.26851 10.9028 9.52364 10.7154 9.71097ZM13.9982 15.0045C13.9982 15.2703 13.893 15.5236 13.7056 15.711C13.5183 15.8983 13.2632 16.0036 12.9991 16.0036C12.7351 16.0036 12.4799 15.8983 12.2926 15.711C12.1053 15.5236 12 15.2685 12 15.0045V12.0054C12 11.7395 12.1053 11.4862 12.2926 11.2988C12.4799 11.1115 12.7351 11.0062 12.9991 11.0062C13.2632 11.0062 13.5183 11.1115 13.7056 11.2988C13.893 11.4862 13.9982 11.7413 13.9982 12.0054V15.0045ZM13.7145 9.71097C13.5272 9.8983 13.2721 10.0036 13.008 10.0036H12.9973C12.7315 10.0036 12.4781 9.8983 12.2908 9.71097C12.1035 9.52364 11.9982 9.26851 11.9982 9.00446C11.9982 8.74041 12.1035 8.48528 12.2908 8.29795C12.4781 8.11062 12.7333 8.00535 12.9973 8.00535H13.008C13.2739 8.00535 13.5272 8.11062 13.7145 8.29795C13.9019 8.48528 14.0071 8.74041 14.0071 9.00446C14.0071 9.26851 13.9019 9.52364 13.7145 9.71097Z" class="highlight"/>
<path fill-rule="evenodd" clip-rule="evenodd" d="M6.99911 4C6.73327 4 6.47993 4.10526 6.2926 4.2926C6.10526 4.47993 6 4.73506 6 4.99911C6 5.26316 6.10526 5.51829 6.2926 5.70562C6.47993 5.89295 6.73506 5.99822 6.99911 5.99822H12.9991C13.2649 5.99822 13.5183 5.89295 13.7056 5.70562C13.893 5.51829 13.9982 5.26316 13.9982 4.99911C13.9982 4.73506 13.893 4.47993 13.7056 4.2926C13.5183 4.10526 13.2632 4 12.9991 4H6.99911Z" />
<path d="M12.9991 6.35679H6.9991C6.63693 6.35679 6.29616 6.21584 6.03925 5.95893C5.78233 5.70202 5.64139 5.36125 5.64139 4.99907C5.64139 4.6369 5.78233 4.29613 6.03925 4.03922C6.29616 3.7823 6.63693 3.64136 6.9991 3.64136H12.9991C13.3613 3.64136 13.702 3.7823 13.959 4.03922C14.2159 4.29613 14.3568 4.6369 14.3568 4.99907C14.3568 5.36125 14.2159 5.70202 13.959 5.95893C13.702 6.21584 13.3613 6.35679 12.9991 6.35679ZM6.9991 4.35679C6.82783 4.35679 6.66547 4.42459 6.54415 4.54591C6.42283 4.66723 6.35504 4.82958 6.35504 5.00086C6.35504 5.17213 6.42283 5.33449 6.54415 5.45581C6.66547 5.57713 6.82783 5.64493 6.9991 5.64493H12.9991C13.1704 5.64493 13.3327 5.57713 13.4541 5.45581C13.5754 5.33449 13.6432 5.17213 13.6432 5.00086C13.6432 4.82958 13.5754 4.66723 13.4541 4.54591C13.3327 4.42459 13.1704 4.35679 12.9991 4.35679H6.9991Z" fill="white"/>
</g>
<defs>
<clipPath id="clip0_1643_16889">
<rect width="12" height="16" fill="white" transform="translate(4 2)"/>
</clipPath>
</defs>
</svg>
