<svg width="12" height="16" viewBox="0 0 12 16" fill="none" xmlns="http://www.w3.org/2000/svg">
<g clip-path="url(#clip0_1643_16891)">
<path fill-rule="evenodd" clip-rule="evenodd" d="M11.4148 0.585192C11.0401 0.210526 10.5317 0 10 0H2C1.47012 0 0.961641 0.210526 0.585192 0.585192C0.210526 0.961641 0 1.47012 0 2V14C0 14.5299 0.210526 15.0384 0.585192 15.4148C0.959857 15.7895 1.46833 16 2 16H10C10.5299 16 11.0384 15.7895 11.4148 15.4148C11.7895 15.0401 12 14.5317 12 14V2C12 1.47012 11.7895 0.961641 11.4148 0.585192V0.585192ZM3.71632 13.7074C3.52899 13.8947 3.27386 14 3.00981 14H2.99911C2.73327 14 2.47993 13.8947 2.2926 13.7074C2.10526 13.5201 2 13.2649 2 13.0009C2 12.7368 2.10526 12.4817 2.2926 12.2944C2.47993 12.107 2.73506 12.0018 2.99911 12.0018H3.00981C3.27565 12.0018 3.52899 12.107 3.71632 12.2944C3.90366 12.4817 4.00892 12.7368 4.00892 13.0009C4.00892 13.2649 3.90366 13.5201 3.71632 13.7074ZM3.71632 10.7083C3.52899 10.8956 3.27386 11.0009 3.00981 11.0009H2.99911C2.73327 11.0009 2.47993 10.8956 2.2926 10.7083C2.10526 10.521 2 10.2658 2 10.0018C2 9.73773 2.10526 9.4826 2.2926 9.29527C2.47993 9.10794 2.73506 9.00268 2.99911 9.00268H3.00981C3.27565 9.00268 3.52899 9.10794 3.71632 9.29527C3.90366 9.4826 4.00892 9.73773 4.00892 10.0018C4.00892 10.2658 3.90366 10.521 3.71632 10.7083ZM3.71632 7.70919C3.52899 7.89652 3.27386 8.00178 3.00981 8.00178H2.99911C2.73327 8.00178 2.47993 7.89652 2.2926 7.70919C2.10526 7.52186 2 7.26673 2 7.00268C2 6.73863 2.10526 6.4835 2.2926 6.29616C2.47993 6.10883 2.73506 6.00357 2.99911 6.00357H3.00981C3.27565 6.00357 3.52899 6.10883 3.71632 6.29616C3.90366 6.4835 4.00892 6.73863 4.00892 7.00268C4.00892 7.26673 3.90366 7.52186 3.71632 7.70919ZM6.71543 13.7092C6.5281 13.8965 6.27297 14.0018 6.00892 14.0018H5.99822C5.73238 14.0018 5.47904 13.8965 5.2917 13.7092C5.10437 13.5219 4.99911 13.2667 4.99911 13.0027C4.99911 12.7386 5.10437 12.4835 5.2917 12.2962C5.47904 12.1088 5.73417 12.0036 5.99822 12.0036H6.00892C6.27475 12.0036 6.5281 12.1088 6.71543 12.2962C6.90276 12.4835 7.00803 12.7386 7.00803 13.0027C7.00803 13.2667 6.90276 13.5219 6.71543 13.7092ZM6.71543 10.7101C6.5281 10.8974 6.27297 11.0027 6.00892 11.0027H5.99822C5.73238 11.0027 5.47904 10.8974 5.2917 10.7101C5.10437 10.5227 4.99911 10.2676 4.99911 10.0036C4.99911 9.73952 5.10437 9.48439 5.2917 9.29706C5.47904 9.10972 5.73417 9.00446 5.99822 9.00446H6.00892C6.27475 9.00446 6.5281 9.10972 6.71543 9.29706C6.90276 9.48439 7.00803 9.73952 7.00803 10.0036C7.00803 10.2676 6.90276 10.5227 6.71543 10.7101ZM6.71543 7.71097C6.5281 7.8983 6.27297 8.00357 6.00892 8.00357H5.99822C5.73238 8.00357 5.47904 7.8983 5.2917 7.71097C5.10437 7.52364 4.99911 7.26851 4.99911 7.00446C4.99911 6.74041 5.10437 6.48528 5.2917 6.29795C5.47904 6.11062 5.73417 6.00535 5.99822 6.00535H6.00892C6.27475 6.00535 6.5281 6.11062 6.71543 6.29795C6.90276 6.48528 7.00803 6.74041 7.00803 7.00446C7.00803 7.26851 6.90276 7.52364 6.71543 7.71097ZM9.99822 13.0045C9.99822 13.2703 9.89295 13.5236 9.70562 13.711C9.51829 13.8983 9.26316 14.0036 8.99911 14.0036C8.73506 14.0036 8.47993 13.8983 8.2926 13.711C8.10526 13.5236 8 13.2685 8 13.0045V10.0054C8 9.73952 8.10526 9.48617 8.2926 9.29884C8.47993 9.11151 8.73506 9.00624 8.99911 9.00624C9.26316 9.00624 9.51829 9.11151 9.70562 9.29884C9.89295 9.48617 9.99822 9.7413 9.99822 10.0054V13.0045ZM9.71454 7.71097C9.52721 7.8983 9.27208 8.00357 9.00803 8.00357H8.99732C8.73149 8.00357 8.47814 7.8983 8.29081 7.71097C8.10348 7.52364 7.99822 7.26851 7.99822 7.00446C7.99822 6.74041 8.10348 6.48528 8.29081 6.29795C8.47814 6.11062 8.73327 6.00535 8.99732 6.00535H9.00803C9.27386 6.00535 9.52721 6.11062 9.71454 6.29795C9.90187 6.48528 10.0071 6.74041 10.0071 7.00446C10.0071 7.26851 9.90187 7.52364 9.71454 7.71097Z" class="fill-highlight" />
<path fill-rule="evenodd" clip-rule="evenodd" d="M2.99911 2C2.73327 2 2.47993 2.10526 2.2926 2.2926C2.10526 2.47993 2 2.73506 2 2.99911C2 3.26316 2.10526 3.51829 2.2926 3.70562C2.47993 3.89295 2.73506 3.99822 2.99911 3.99822H8.99911C9.26494 3.99822 9.51829 3.89295 9.70562 3.70562C9.89295 3.51829 9.99822 3.26316 9.99822 2.99911C9.99822 2.73506 9.89295 2.47993 9.70562 2.2926C9.51829 2.10526 9.26316 2 8.99911 2H2.99911Z" fill="#8D95A4"/>
<path d="M8.9991 4.35679H2.9991C2.63693 4.35679 2.29616 4.21584 2.03925 3.95893C1.78233 3.70202 1.64139 3.36125 1.64139 2.99907C1.64139 2.6369 1.78233 2.29613 2.03925 2.03922C2.29616 1.7823 2.63693 1.64136 2.9991 1.64136H8.9991C9.36128 1.64136 9.70205 1.7823 9.95896 2.03922C10.2159 2.29613 10.3568 2.6369 10.3568 2.99907C10.3568 3.36125 10.2159 3.70202 9.95896 3.95893C9.70205 4.21584 9.36128 4.35679 8.9991 4.35679ZM2.9991 2.35679C2.82783 2.35679 2.66547 2.42459 2.54415 2.54591C2.42283 2.66723 2.35504 2.82958 2.35504 3.00086C2.35504 3.17213 2.42283 3.33449 2.54415 3.45581C2.66547 3.57713 2.82783 3.64493 2.9991 3.64493H8.9991C9.17038 3.64493 9.33273 3.57713 9.45406 3.45581C9.57538 3.33449 9.64317 3.17213 9.64317 3.00086C9.64317 2.82958 9.57538 2.66723 9.45406 2.54591C9.33273 2.42459 9.17038 2.35679 8.9991 2.35679H2.9991V2.35679Z" fill="white"/>
</g>
<defs>
<clipPath id="clip0_1643_16891">
<rect width="12" height="16" fill="white"/>
</clipPath>
</defs>
</svg>
