<svg width="20" height="20" viewBox="0 0 20 20" fill="none" xmlns="http://www.w3.org/2000/svg">
<g clip-path="url(#clip0_1643_16848)">
<path d="M9.6115 14.7727C8.95461 14.1051 8.5934 13.2169 8.5934 12.2724C8.5934 11.328 8.95461 10.4398 9.6115 9.77214C10.2684 9.10452 11.1423 8.73592 12.0715 8.73592C13.0008 8.73592 13.8747 9.10304 14.5316 9.77066C14.852 9.43759 15.2278 9.17557 15.6487 8.99201C16.0754 8.80549 16.527 8.70927 16.9916 8.70483C17.111 8.70335 17.2304 8.70779 17.3499 8.71963L10.5859 1.84796C10.3907 1.6496 10.1256 1.53857 9.85036 1.53857C9.57508 1.53857 9.31 1.6496 9.11483 1.84796L1.83087 9.25255C1.64007 9.45091 1.5352 9.71885 1.53811 9.99567C1.54103 10.2725 1.65027 10.539 1.84252 10.7344C2.03478 10.9298 2.29695 11.0423 2.56932 11.0437C2.84168 11.0467 3.10531 10.9401 3.30194 10.7462L3.60634 10.4368V17.4032C3.60634 17.683 3.71558 17.9524 3.91075 18.1508C4.10592 18.3491 4.37101 18.4602 4.64629 18.4602H13.2382L9.61004 14.7712L9.6115 14.7727Z" class="highlight"/>
<path d="M18.0391 11.208C17.9037 11.0704 17.7435 10.9623 17.5658 10.8883C17.3881 10.8143 17.2016 10.7772 17.0079 10.7787C16.8157 10.7802 16.6292 10.8202 16.4516 10.8972C16.2753 10.9741 16.118 11.0852 15.984 11.2258L15.9709 11.2391L14.529 12.7032L13.1205 11.2732C12.8555 11.0037 12.5059 10.8291 12.1316 10.8128C11.7238 10.795 11.3378 10.949 11.0508 11.2391C10.7639 11.5307 10.6139 11.923 10.6314 12.3375C10.6474 12.718 10.8207 13.0732 11.0843 13.3427L14.2464 16.5564C14.4023 16.7148 14.6557 16.7148 14.8115 16.5564L18.0187 13.2968C18.1571 13.1606 18.2649 13.0007 18.3421 12.8216C18.4178 12.6425 18.4572 12.4515 18.4586 12.2561C18.4601 12.0607 18.4237 11.8697 18.3508 11.6891C18.278 11.5085 18.1717 11.3472 18.0362 11.208H18.0391Z" />
</g>
<defs>
<clipPath id="clip0_1643_16848">
<rect width="16.9231" height="16.9231" fill="white" transform="translate(1.53845 1.53857)"/>
</clipPath>
</defs>
</svg>
