<svg width="18" height="18" viewBox="0 0 18 18" fill="none" xmlns="http://www.w3.org/2000/svg">
<g clip-path="url(#clip0_1643_16850)">
<path d="M8.61149 13.7727C7.95461 13.1051 7.5934 12.2169 7.5934 11.2724C7.5934 10.328 7.95461 9.43977 8.61149 8.77214C9.26838 8.10452 10.1423 7.73592 11.0715 7.73592C12.0008 7.73592 12.8747 8.10304 13.5316 8.77066C13.852 8.43759 14.2278 8.17557 14.6487 7.99201C15.0754 7.80549 15.527 7.70927 15.9916 7.70483C16.111 7.70335 16.2304 7.70779 16.3499 7.71963L9.58589 0.847962C9.39072 0.649599 9.12564 0.538574 8.85036 0.538574C8.57508 0.538574 8.31 0.649599 8.11483 0.847962L0.830871 8.25255C0.64007 8.45091 0.535202 8.71885 0.538115 8.99567C0.541028 9.27249 0.650265 9.53895 0.842523 9.73435C1.03478 9.92976 1.29695 10.0423 1.56932 10.0437C1.84168 10.0467 2.10531 9.94012 2.30194 9.7462L2.60634 9.43681V16.4032C2.60634 16.683 2.71558 16.9524 2.91075 17.1508C3.10592 17.3491 3.37101 17.4602 3.64629 17.4602H12.2382L8.61004 13.7712L8.61149 13.7727Z" class="fill-highlight" />
<path d="M17.0391 10.208C16.9037 10.0704 16.7435 9.96229 16.5658 9.88827C16.3881 9.81426 16.2016 9.77725 16.0079 9.77873C15.8157 9.78021 15.6292 9.82018 15.4516 9.89716C15.2753 9.97413 15.118 10.0852 14.984 10.2258L14.9709 10.2391L13.529 11.7032L12.1205 10.2732C11.8555 10.0037 11.5059 9.82906 11.1316 9.81278C10.7238 9.79501 10.3378 9.94897 10.0508 10.2391C9.76392 10.5307 9.6139 10.923 9.63138 11.3375C9.6474 11.718 9.82072 12.0732 10.0843 12.3427L13.2464 15.5564C13.4023 15.7148 13.6557 15.7148 13.8115 15.5564L17.0187 12.2968C17.1571 12.1606 17.2649 12.0007 17.3421 11.8216C17.4178 11.6425 17.4572 11.4515 17.4586 11.2561C17.4601 11.0607 17.4237 10.8697 17.3508 10.6891C17.278 10.5085 17.1717 10.3472 17.0362 10.208H17.0391Z" fill="#8D95A4"/>
</g>
<defs>
<clipPath id="clip0_1643_16850">
<rect width="16.9231" height="16.9231" fill="white" transform="translate(0.538452 0.538574)"/>
</clipPath>
</defs>
</svg>
