<svg width="20" height="20" viewBox="0 0 20 20" fill="none" xmlns="http://www.w3.org/2000/svg">
<g clip-path="url(#clip0_1643_16853)">
<path d="M10.0487 1.84008C9.85674 1.64736 9.59672 1.53857 9.32586 1.53857C9.055 1.53857 8.79498 1.64736 8.60306 1.84008L1.44163 9.0311C1.25435 9.22382 1.1522 9.48336 1.15375 9.75378C1.15685 10.0226 1.26364 10.2806 1.45401 10.4718C1.64439 10.663 1.89976 10.7702 2.16907 10.7733C2.43683 10.7749 2.69531 10.6723 2.88878 10.4842L3.18904 10.1827V16.9479C3.18904 17.2199 3.29738 17.481 3.4893 17.6737C3.68122 17.8664 3.94124 17.9752 4.2121 17.9752H6.25822C6.52908 17.9752 6.7891 17.8664 6.98102 17.6737C7.17294 17.481 7.28128 17.2199 7.28128 16.9479V14.1163C7.28128 13.8443 7.38963 13.5832 7.58155 13.3905C7.77347 13.1978 8.03349 13.089 8.30435 13.089H10.3505C10.6213 13.089 10.8813 13.1978 11.0733 13.3905C11.2652 13.5832 11.3735 13.8443 11.3735 14.1163V15.8445L13.3036 15.8569L13.3608 17.9768H14.4427C14.7136 17.9768 14.9736 17.868 15.1655 17.6753C15.3574 17.4825 15.4658 17.2214 15.4658 16.9495V10.1827L15.766 10.4842C15.9595 10.6707 16.218 10.7749 16.4857 10.7733C16.7535 10.7702 17.0104 10.663 17.2008 10.4718C17.3912 10.2806 17.498 10.0242 17.5011 9.75378C17.5042 9.48491 17.4005 9.22537 17.2132 9.0311L10.0487 1.84008Z" class="highlight"/>
<path fill-rule="evenodd" clip-rule="evenodd" d="M14.5821 17.84C14.2199 17.8369 13.8779 17.694 13.6225 17.436C13.3656 17.178 13.2232 16.8361 13.2201 16.4708C13.217 16.1398 13.33 15.8243 13.5405 15.5726H9.29499C8.92818 15.5726 8.58303 15.4296 8.32301 15.1685C8.06299 14.9074 7.92059 14.5608 7.92059 14.1925C7.92059 13.8241 8.06299 13.4776 8.32301 13.2165C8.58303 12.9554 8.92818 12.8124 9.29499 12.8124H13.5374C13.4461 12.7067 13.3702 12.5855 13.3129 12.4518C13.2402 12.2824 13.2031 12.1037 13.2015 11.9188C13.2 11.7354 13.234 11.5551 13.3037 11.3841C13.3733 11.2132 13.4739 11.0609 13.6039 10.9303C13.7339 10.7998 13.8856 10.6988 14.0559 10.6288C14.2215 10.5604 14.3964 10.5262 14.5759 10.5262C14.7709 10.5278 14.9505 10.5651 15.1176 10.6381C15.2863 10.7112 15.4365 10.8153 15.5634 10.9474L17.8231 13.2165C18.0831 13.4776 18.2255 13.8241 18.2255 14.1925C18.2255 14.5608 18.0831 14.9074 17.8231 15.1685L15.5556 17.4453C15.291 17.7033 14.9505 17.84 14.5929 17.84H14.5806H14.5821Z" />
<path d="M14.5759 11.1479H14.5821C14.6827 11.1479 14.7818 11.1696 14.8731 11.2101C14.9659 11.2505 15.048 11.308 15.1176 11.3795L17.3851 13.6563C17.5275 13.7993 17.6064 13.992 17.6064 14.1925C17.6064 14.3929 17.5275 14.5872 17.3851 14.7286L15.1176 17.0055C14.9768 17.1422 14.788 17.2184 14.5929 17.2184H14.5867C14.3886 17.2168 14.1998 17.136 14.059 16.9961C13.9181 16.8547 13.8392 16.6651 13.8376 16.4662C13.8361 16.2672 13.9119 16.0761 14.0497 15.9331L15.0263 14.9524H9.29499C9.09533 14.9524 8.90186 14.8732 8.76102 14.7302C8.61863 14.5872 8.53969 14.3945 8.53969 14.194C8.53969 13.9935 8.61863 13.7993 8.76102 13.6578C8.90341 13.5149 9.09533 13.4356 9.29499 13.4356H15.0279L14.0512 12.4549C13.9785 12.385 13.9212 12.3011 13.8825 12.2094C13.8423 12.1161 13.8222 12.0167 13.8206 11.9172C13.8206 11.8162 13.8392 11.7167 13.8763 11.6235C13.915 11.5302 13.9707 11.4447 14.0419 11.3748C14.1131 11.3049 14.1967 11.2474 14.2896 11.2085C14.3809 11.1712 14.4784 11.1526 14.5759 11.1526M14.5759 9.90924C14.3159 9.90924 14.0621 9.95897 13.8206 10.0584C13.5745 10.1595 13.3547 10.3071 13.1659 10.4951C12.9771 10.6848 12.8316 10.9054 12.731 11.1526C12.6304 11.3997 12.5809 11.6608 12.5824 11.9281C12.5824 12.0182 12.5901 12.1068 12.6025 12.1954H9.29654C8.76411 12.1954 8.26264 12.4036 7.88654 12.7813C7.51044 13.159 7.30304 13.6625 7.30304 14.1971C7.30304 14.7317 7.51044 15.2353 7.88654 15.6129C8.26264 15.9906 8.76411 16.1989 9.29654 16.1989H12.6196C12.6072 16.2921 12.601 16.3854 12.6025 16.4817C12.6072 17.0101 12.8146 17.5059 13.186 17.8804C13.5575 18.2534 14.0528 18.4617 14.579 18.4664H14.596C15.1161 18.4664 15.6083 18.2674 15.9813 17.9038L15.989 17.896L15.9967 17.8882L18.2642 15.6114C18.6403 15.2337 18.8477 14.7302 18.8477 14.1956C18.8477 13.6609 18.6403 13.1574 18.2642 12.7797L16.0029 10.5091C15.8203 10.3211 15.6052 10.1734 15.3653 10.0693C15.1207 9.96363 14.8622 9.90924 14.596 9.90613H14.579L14.5759 9.90924Z" fill="#FCFCFC"/>
</g>
<defs>
<clipPath id="clip0_1643_16853">
<rect width="17.6923" height="16.9231" fill="white" transform="translate(1.15384 1.53857)"/>
</clipPath>
</defs>
</svg>
