<svg width="12" height="15" viewBox="0 0 12 15" fill="none" xmlns="http://www.w3.org/2000/svg">
<g clip-path="url(#clip0_1245_27716)">
<path d="M5 0C4.73469 0 4.47959 0.0980548 4.29337 0.275032C4.10459 0.452009 4 0.688775 4 0.9375C4 1.18622 4.10459 1.42538 4.29337 1.59997C4.48214 1.77695 4.73469 1.875 5 1.875H7C7.26531 1.875 7.52041 1.77695 7.70663 1.59997C7.89541 1.42299 8 1.18622 8 0.9375C8 0.688775 7.89541 0.449617 7.70663 0.275032C7.51786 0.100446 7.26531 0 7 0H5V0Z" fill="#8D95A4"/>
<path fill-rule="evenodd" clip-rule="evenodd" d="M0 2.8125C0 2.31505 0.211735 1.83913 0.586735 1.48756C0.961735 1.136 1.46939 0.9375 2 0.9375C2 1.68367 2.31633 2.39876 2.87755 2.9273C3.44133 3.45584 4.20408 3.75 5 3.75H7C7.79592 3.75 8.55867 3.45344 9.12245 2.9273C9.68622 2.39876 10 1.68367 10 0.9375C10.5306 0.9375 11.0383 1.136 11.4133 1.48756C11.7883 1.83913 12 2.31505 12 2.8125V13.125C12 13.6224 11.7883 14.0984 11.4133 14.4499C11.0383 14.8015 10.5306 15 10 15H2C1.46939 15 0.961735 14.8015 0.586735 14.4499C0.211735 14.0984 0 13.6224 0 13.125V2.8125ZM9.70663 8.16247C9.88775 7.98549 9.9898 7.74872 9.98725 7.50239C9.98725 7.25606 9.8801 7.02168 9.69388 6.8471C9.50765 6.67251 9.25765 6.57446 8.9949 6.57207C8.73214 6.57207 8.47959 6.66534 8.29082 6.83514L4.99745 9.92267L3.70408 8.71014C3.51531 8.54034 3.26276 8.44467 3 8.44707C2.73724 8.44707 2.48725 8.54751 2.30102 8.7221C2.1148 8.89668 2.0102 9.13106 2.00765 9.37739C2.00765 9.62372 2.10714 9.86049 2.28827 10.0375L4.28827 11.9125C4.47704 12.0871 4.72959 12.1875 4.9949 12.1875C5.2602 12.1875 5.51531 12.0894 5.70153 11.9125L9.70153 8.16247H9.70663Z" class="highlight" />
</g>
<defs>
<clipPath id="clip0_1245_27716">
<rect width="12" height="15" fill="white"/>
</clipPath>
</defs>
</svg>
