<svg width="20" height="20" viewBox="0 0 20 20" fill="none" xmlns="http://www.w3.org/2000/svg">
<g clip-path="url(#clip0_1245_27713)">
<path d="M9 2C8.73469 2 8.47959 2.09805 8.29337 2.27503C8.10459 2.45201 8 2.68878 8 2.9375C8 3.18622 8.10459 3.42538 8.29337 3.59997C8.48214 3.77695 8.73469 3.875 9 3.875H11C11.2653 3.875 11.5204 3.77695 11.7066 3.59997C11.8954 3.42299 12 3.18622 12 2.9375C12 2.68878 11.8954 2.44962 11.7066 2.27503C11.5179 2.10045 11.2653 2 11 2H9V2Z" />
<path fill-rule="evenodd" clip-rule="evenodd" d="M4 4.8125C4 4.31505 4.21173 3.83913 4.58673 3.48756C4.96173 3.136 5.46939 2.9375 6 2.9375C6 3.68367 6.31633 4.39876 6.87755 4.9273C7.44133 5.45584 8.20408 5.75 9 5.75H11C11.7959 5.75 12.5587 5.45344 13.1224 4.9273C13.6862 4.39876 14 3.68367 14 2.9375C14.5306 2.9375 15.0383 3.136 15.4133 3.48756C15.7883 3.83913 16 4.31505 16 4.8125V15.125C16 15.6224 15.7883 16.0984 15.4133 16.4499C15.0383 16.8015 14.5306 17 14 17H6C5.46939 17 4.96173 16.8015 4.58673 16.4499C4.21173 16.0984 4 15.6224 4 15.125V4.8125ZM13.7066 10.1625C13.8878 9.98549 13.9898 9.74872 13.9872 9.50239C13.9872 9.25606 13.8801 9.02168 13.6939 8.8471C13.5077 8.67251 13.2577 8.57446 12.9949 8.57207C12.7321 8.57207 12.4796 8.66534 12.2908 8.83514L8.99745 11.9227L7.70408 10.7101C7.51531 10.5403 7.26276 10.4447 7 10.4471C6.73724 10.4471 6.48725 10.5475 6.30102 10.7221C6.1148 10.8967 6.0102 11.1311 6.00765 11.3774C6.00765 11.6237 6.10714 11.8605 6.28827 12.0375L8.28827 13.9125C8.47704 14.0871 8.72959 14.1875 8.9949 14.1875C9.2602 14.1875 9.51531 14.0894 9.70153 13.9125L13.7015 10.1625H13.7066Z" class="highlight"/>
</g>
<defs>
<clipPath id="clip0_1245_27713">
<rect width="12" height="15" fill="white" transform="translate(4 2)"/>
</clipPath>
</defs>
</svg>
