<svg width="20" height="20" viewBox="0 0 20 20" fill="none" xmlns="http://www.w3.org/2000/svg">
<g clip-path="url(#clip0_1643_16907)">
<path fill-rule="evenodd" clip-rule="evenodd" d="M8.21175 13.8298C8.21175 11.2975 10.2642 9.24515 12.7967 9.24515C14.0444 9.24515 15.1739 9.74364 16.0014 10.5526V7.41499C16.0014 6.88517 15.7906 6.37529 15.416 6.00071L12.0005 2.58537C11.6259 2.21079 11.1174 2 10.5861 2H5.99976C5.46991 2 4.96 2.21079 4.5854 2.58537C4.2108 2.96137 4 3.46982 4 3.99964V16.0004C4 16.5302 4.2108 17.0401 4.5854 17.4146C4.96 17.7892 5.46991 18 5.99976 18H10.8938C9.31134 17.2765 8.21175 15.6827 8.21175 13.8298Z" class="highlight"/>
<path fill-rule="evenodd" clip-rule="evenodd" d="M12.7967 17.0329C13.647 17.0329 14.4617 16.6953 15.0628 16.0943C15.6638 15.4933 16.0014 14.6786 16.0014 13.8283C16.0014 12.9781 15.6638 12.1634 15.0628 11.5624C14.4617 10.9613 13.647 10.6238 12.7967 10.6238C11.9463 10.6238 11.1316 10.9613 10.5306 11.5624C9.92949 12.1634 9.59192 12.9781 9.59192 13.8283C9.59192 14.6786 9.92949 15.4933 10.5306 16.0943C11.1316 16.6953 11.9463 17.0329 12.7967 17.0329ZM13.1969 12.2261C13.1969 12.1192 13.1542 12.0181 13.0801 11.9426C13.0046 11.8671 12.9035 11.8258 12.7967 11.8258C12.6898 11.8258 12.5887 11.8686 12.5132 11.9426C12.4377 12.0181 12.3964 12.1192 12.3964 12.2261V13.8283C12.3964 13.9352 12.4392 14.0363 12.5132 14.1118L13.6456 15.2455C13.6826 15.2825 13.7268 15.3124 13.7752 15.3323C13.8236 15.3523 13.8763 15.3623 13.929 15.3623C13.9817 15.3623 14.0344 15.3523 14.0828 15.3323C14.1313 15.3124 14.1754 15.2825 14.2125 15.2455C14.2495 15.2084 14.2794 15.1643 14.2993 15.1159C14.3193 15.0674 14.3292 15.0147 14.3292 14.962C14.3292 14.9093 14.3193 14.8566 14.2993 14.8082C14.2794 14.7598 14.2495 14.7156 14.2125 14.6786L13.1969 13.6631V12.2275V12.2261Z" />
</g>
<defs>
<clipPath id="clip0_1643_16907">
<rect width="12" height="16" fill="white" transform="translate(4 2)"/>
</clipPath>
</defs>
</svg>
