<svg width="12" height="16" viewBox="0 0 12 16" fill="none" xmlns="http://www.w3.org/2000/svg">
<g clip-path="url(#clip0_1643_16909)">
<path fill-rule="evenodd" clip-rule="evenodd" d="M4.21175 11.8298C4.21175 9.29749 6.26421 7.24515 8.79668 7.24515C10.0444 7.24515 11.1739 7.74364 12.0014 8.55261V5.41499C12.0014 4.88517 11.7906 4.37529 11.416 4.00071L8.00047 0.585366C7.62588 0.210789 7.11739 0 6.58611 0H1.99976C1.46991 0 0.96 0.210789 0.585401 0.585366C0.210801 0.961367 0 1.46982 0 1.99964V14.0004C0 14.5302 0.210801 15.0401 0.585401 15.4146C0.96 15.7892 1.46991 16 1.99976 16H6.89377C5.31134 15.2765 4.21175 13.6827 4.21175 11.8298Z" class="highlight" />
<path fill-rule="evenodd" clip-rule="evenodd" d="M8.79667 15.0329C9.64699 15.0329 10.4617 14.6953 11.0628 14.0943C11.6638 13.4933 12.0014 12.6786 12.0014 11.8283C12.0014 10.9781 11.6638 10.1634 11.0628 9.56236C10.4617 8.96133 9.64699 8.62378 8.79667 8.62378C7.94634 8.62378 7.13162 8.96133 6.53055 9.56236C5.92949 10.1634 5.59192 10.9781 5.59192 11.8283C5.59192 12.6786 5.92949 13.4933 6.53055 14.0943C7.13162 14.6953 7.94634 15.0329 8.79667 15.0329ZM9.1969 10.2261C9.1969 10.1192 9.15417 10.0181 9.08011 9.94263C9.00462 9.86715 8.90349 9.82584 8.79667 9.82584C8.68984 9.82584 8.58871 9.86857 8.51323 9.94263C8.43774 10.0181 8.39643 10.1192 8.39643 10.2261V11.8283C8.39643 11.9352 8.43916 12.0363 8.51323 12.1118L9.64557 13.2455C9.6826 13.2825 9.72676 13.3124 9.77518 13.3323C9.82361 13.3523 9.87631 13.3623 9.92901 13.3623C9.98171 13.3623 10.0344 13.3523 10.0828 13.3323C10.1313 13.3124 10.1754 13.2825 10.2125 13.2455C10.2495 13.2084 10.2794 13.1643 10.2993 13.1159C10.3193 13.0674 10.3292 13.0147 10.3292 12.962C10.3292 12.9093 10.3193 12.8566 10.2993 12.8082C10.2794 12.7598 10.2495 12.7156 10.2125 12.6786L9.1969 11.6631V10.2275V10.2261Z" fill="#8D95A4"/>
</g>
<defs>
<clipPath id="clip0_1643_16909">
<rect width="12" height="16" fill="white"/>
</clipPath>
</defs>
</svg>
