<svg width="18" height="18" viewBox="0 0 18 18" fill="none" xmlns="http://www.w3.org/2000/svg">
<g clip-path="url(#clip0_1643_16855)">
<path d="M9.04866 0.840078C8.85674 0.647364 8.59672 0.538574 8.32586 0.538574C8.055 0.538574 7.79498 0.647364 7.60306 0.840078L0.441631 8.0311C0.254353 8.22382 0.152202 8.48336 0.15375 8.75378C0.156845 9.02265 0.26364 9.28063 0.454013 9.4718C0.644386 9.66295 0.899764 9.77019 1.16907 9.7733C1.43683 9.77485 1.69531 9.67228 1.88878 9.48423L2.18904 9.18272V15.9479C2.18904 16.2199 2.29738 16.481 2.4893 16.6737C2.68122 16.8664 2.94124 16.9752 3.2121 16.9752H5.25822C5.52908 16.9752 5.7891 16.8664 5.98102 16.6737C6.17294 16.481 6.28128 16.2199 6.28128 15.9479V13.1163C6.28128 12.8443 6.38963 12.5832 6.58155 12.3905C6.77347 12.1978 7.03349 12.089 7.30435 12.089H9.35047C9.62133 12.089 9.88135 12.1978 10.0733 12.3905C10.2652 12.5832 10.3735 12.8443 10.3735 13.1163V14.8445L12.3036 14.8569L12.3608 16.9768H13.4427C13.7136 16.9768 13.9736 16.868 14.1655 16.6753C14.3574 16.4825 14.4658 16.2214 14.4658 15.9495V9.18272L14.766 9.48423C14.9595 9.67073 15.218 9.77485 15.4857 9.7733C15.7535 9.77019 16.0104 9.66295 16.2008 9.4718C16.3912 9.28063 16.498 9.0242 16.5011 8.75378C16.5042 8.48491 16.4005 8.22537 16.2132 8.0311L9.04866 0.840078Z" class="fill-highlight"/>
<path fill-rule="evenodd" clip-rule="evenodd" d="M13.5821 16.84C13.2199 16.8369 12.8779 16.694 12.6225 16.436C12.3656 16.178 12.2232 15.8361 12.2201 15.4708C12.217 15.1398 12.33 14.8243 12.5405 14.5726H8.29499C7.92818 14.5726 7.58303 14.4296 7.32301 14.1685C7.06299 13.9074 6.92059 13.5608 6.92059 13.1925C6.92059 12.8241 7.06299 12.4776 7.32301 12.2165C7.58303 11.9554 7.92818 11.8124 8.29499 11.8124H12.5374C12.4461 11.7067 12.3702 11.5855 12.3129 11.4518C12.2402 11.2824 12.2031 11.1037 12.2015 10.9188C12.2 10.7354 12.234 10.5551 12.3037 10.3841C12.3733 10.2132 12.4739 10.0609 12.6039 9.93032C12.7339 9.79977 12.8856 9.69876 13.0559 9.62882C13.2215 9.56044 13.3964 9.52625 13.5759 9.52625C13.7709 9.5278 13.9505 9.5651 14.1176 9.63814C14.2863 9.71119 14.4365 9.81532 14.5634 9.94742L16.8231 12.2165C17.0831 12.4776 17.2255 12.8241 17.2255 13.1925C17.2255 13.5608 17.0831 13.9074 16.8231 14.1685L14.5556 16.4453C14.291 16.7033 13.9505 16.84 13.5929 16.84H13.5806H13.5821Z" fill="#8D95A4"/>
<path d="M13.5759 10.1479H13.5821C13.6827 10.1479 13.7818 10.1696 13.8731 10.2101C13.9659 10.2505 14.048 10.308 14.1176 10.3795L16.3851 12.6563C16.5275 12.7993 16.6064 12.992 16.6064 13.1925C16.6064 13.3929 16.5275 13.5872 16.3851 13.7286L14.1176 16.0055C13.9768 16.1422 13.788 16.2184 13.5929 16.2184H13.5867C13.3886 16.2168 13.1998 16.136 13.059 15.9961C12.9181 15.8547 12.8392 15.6651 12.8376 15.4662C12.8361 15.2672 12.9119 15.0761 13.0497 14.9331L14.0263 13.9524H8.29499C8.09533 13.9524 7.90186 13.8732 7.76102 13.7302C7.61863 13.5872 7.53969 13.3945 7.53969 13.194C7.53969 12.9935 7.61863 12.7993 7.76102 12.6578C7.90341 12.5149 8.09533 12.4356 8.29499 12.4356H14.0279L13.0512 11.4549C12.9785 11.385 12.9212 11.3011 12.8825 11.2094C12.8423 11.1161 12.8222 11.0167 12.8206 10.9172C12.8206 10.8162 12.8392 10.7167 12.8763 10.6235C12.915 10.5302 12.9707 10.4447 13.0419 10.3748C13.1131 10.3049 13.1967 10.2474 13.2896 10.2085C13.3809 10.1712 13.4784 10.1526 13.5759 10.1526M13.5759 8.90924C13.3159 8.90924 13.0621 8.95897 12.8206 9.05843C12.5745 9.15945 12.3547 9.3071 12.1659 9.49515C11.9771 9.68475 11.8316 9.90544 11.731 10.1526C11.6304 10.3997 11.5809 10.6608 11.5824 10.9281C11.5824 11.0182 11.5901 11.1068 11.6025 11.1954H8.29654C7.76411 11.1954 7.26264 11.4036 6.88654 11.7813C6.51044 12.159 6.30304 12.6625 6.30304 13.1971C6.30304 13.7317 6.51044 14.2353 6.88654 14.6129C7.26264 14.9906 7.76411 15.1989 8.29654 15.1989H11.6196C11.6072 15.2921 11.601 15.3854 11.6025 15.4817C11.6072 16.0101 11.8146 16.5059 12.186 16.8804C12.5575 17.2534 13.0528 17.4617 13.579 17.4664H13.596C14.1161 17.4664 14.6083 17.2674 14.9813 16.9038L14.989 16.896L14.9967 16.8882L17.2642 14.6114C17.6403 14.2337 17.8477 13.7302 17.8477 13.1956C17.8477 12.6609 17.6403 12.1574 17.2642 11.7797L15.0029 9.50914C14.8203 9.32108 14.6052 9.17344 14.3653 9.06931C14.1207 8.96363 13.8622 8.90924 13.596 8.90613H13.579L13.5759 8.90924Z" fill="#FCFCFC"/>
</g>
<defs>
<clipPath id="clip0_1643_16855">
<rect width="17.6923" height="16.9231" fill="white" transform="translate(0.153839 0.538574)"/>
</clipPath>
</defs>
</svg>
