<svg width="20" height="20" viewBox="0 0 20 20" fill="none" xmlns="http://www.w3.org/2000/svg">
<g clip-path="url(#clip0_1643_16860)">
<path d="M7.99927 15.5009C7.99927 15.8987 7.84132 16.2804 7.56051 16.5613C7.27971 16.8421 6.89799 17 6.50018 17C6.10238 17 5.72066 16.8421 5.43986 16.5613C5.15905 16.2804 5.0011 15.8987 5.0011 15.5009C5.0011 15.103 5.15905 14.7213 5.43986 14.4405C5.72066 14.1597 6.10238 14.0017 6.50018 14.0017C6.89799 14.0017 7.27971 14.1597 7.56051 14.4405C7.84132 14.7213 7.99927 15.103 7.99927 15.5009ZM14.9989 15.5009C14.9989 15.8987 14.841 16.2804 14.5601 16.5613C14.2793 16.8421 13.8976 17 13.4998 17C13.102 17 12.7203 16.8421 12.4395 16.5613C12.1587 16.2804 12.0007 15.8987 12.0007 15.5009C12.0007 15.103 12.1587 14.7213 12.4395 14.4405C12.7203 14.1597 13.102 14.0017 13.4998 14.0017C13.8976 14.0017 14.2793 14.1597 14.5601 14.4405C14.841 14.7213 14.9989 15.103 14.9989 15.5009Z" />
<path d="M3.00037 3C2.73565 3 2.48117 3.10531 2.29397 3.29252C2.1053 3.47973 2 3.73422 2 4.00042V14.0002C2 14.2649 2.1053 14.5194 2.2925 14.7066C2.47971 14.8939 2.73419 14.9992 2.9989 14.9992H4.04899C4.16307 14.4346 4.4702 13.9256 4.91627 13.5614C5.36234 13.1958 5.92102 12.9969 6.49872 12.9969C7.07642 12.9969 7.63364 13.1958 8.08117 13.5614C8.52724 13.9271 8.83437 14.4346 8.94845 14.9992H9.99854C10.2633 14.9992 10.5177 14.8939 10.7049 14.7066C10.8921 14.5194 10.9974 14.2649 10.9974 14.0002V4.00042C10.9974 3.73569 10.8921 3.4812 10.7049 3.29398C10.5177 3.10677 10.2633 3.00146 9.99854 3.00146H3.00037V3ZM14 5.99979C13.7353 5.99979 13.4808 6.1051 13.2936 6.29231C13.1064 6.47952 13.0011 6.73402 13.0011 6.99875V13.0495C13.3229 12.9837 13.6548 12.9822 13.9766 13.0451C14.2984 13.108 14.6055 13.2323 14.8804 13.4137C15.1539 13.5951 15.3894 13.8276 15.5737 14.0997C15.758 14.3717 15.8852 14.6774 15.951 14.9992H17.0011C17.2658 14.9992 17.5203 14.8939 17.7075 14.7066C17.8947 14.5194 18 14.2649 18 14.0002V8.99958C18 8.73485 17.8947 8.48036 17.7075 8.29315L15.7068 6.29377C15.5196 6.10656 15.2651 6.00125 15.0004 6.00125H14V5.99979Z" class="highlight"/>
</g>
<defs>
<clipPath id="clip0_1643_16860">
<rect width="16" height="14" fill="white" transform="translate(2 3)"/>
</clipPath>
</defs>
</svg>
