<svg width="20" height="20" viewBox="0 0 20 20" fill="none" xmlns="http://www.w3.org/2000/svg">
<g clip-path="url(#clip0_1643_16870)">
<path fill-rule="evenodd" clip-rule="evenodd" d="M10.0362 11.0004V9.84359C10.0362 9.37744 10.4157 8.99962 10.884 8.99962H15.0586V4.03389C15.0586 3.73212 15.0019 3.43157 14.8738 3.15802C14.5288 2.4318 13.8116 2 13.0489 2H5.04707C4.74396 2 4.44207 2.05643 4.16729 2.18401C3.4366 2.52626 3.00287 3.24021 3.00287 3.99954V16.0005C2.73672 16.0005 2.48042 16.106 2.29313 16.2936C2.1046 16.4813 1.99863 16.7353 1.99863 17.0002C1.99863 17.4026 2.24261 17.7804 2.648 17.9374C2.76506 17.9828 2.89074 18.0012 3.01519 18.0012H6.00202C6.12771 18.0012 6.25339 17.9828 6.36922 17.9374C6.77584 17.7804 7.01858 17.4026 7.01858 17.0002V15.0117C7.01858 14.8878 7.03706 14.7627 7.08265 14.6462C7.24037 14.2426 7.61989 13.9997 8.02405 13.9997H10.0325V10.9992L10.0362 11.0004ZM10.0362 5.00054H12.0447V7.00008H10.0362V5.00054ZM8.02774 11.0004H6.01927V9.00084H8.02774V11.0004ZM8.02774 7.00008H6.01927V5.00054H8.02774V7.00008Z" class="highlight"/>
<path fill-rule="evenodd" clip-rule="evenodd" d="M11.8095 10.1233C11.9352 10.1233 12.0571 10.1736 12.1459 10.2619C12.2346 10.3502 12.2851 10.4717 12.2851 10.5968V11.5929C12.6819 11.1905 13.1735 10.8949 13.7169 10.7342C14.2591 10.5735 14.8345 10.5539 15.3865 10.6753C15.9385 10.7968 16.4511 11.0568 16.875 11.4298C17.2989 11.8027 17.6205 12.2774 17.809 12.8086C17.8324 12.8675 17.8423 12.9312 17.841 12.9938C17.8386 13.0576 17.8238 13.1189 17.7979 13.1766C17.7708 13.2342 17.7338 13.2858 17.6858 13.3287C17.639 13.3716 17.5835 13.4048 17.5231 13.4256C17.4628 13.4465 17.3999 13.4551 17.3358 13.4514C17.2718 13.4477 17.2102 13.4305 17.1535 13.4035C17.0968 13.3753 17.0451 13.3361 17.0044 13.2882C16.9625 13.2404 16.9317 13.1839 16.912 13.1238C16.7678 12.719 16.5164 12.3608 16.185 12.0873C15.8535 11.8137 15.4531 11.6346 15.0267 11.5696C14.6004 11.5046 14.1654 11.5561 13.7662 11.718C13.367 11.88 13.0195 12.1474 12.7607 12.4909H14.1901C14.3157 12.4909 14.4377 12.5412 14.5265 12.6295C14.6152 12.7178 14.6657 12.8392 14.6657 12.9644C14.6657 13.0895 14.6152 13.2109 14.5265 13.2993C14.4377 13.3876 14.3157 13.4379 14.1901 13.4379H11.8095C11.6838 13.4379 11.5618 13.3876 11.4731 13.2993C11.3844 13.2109 11.3338 13.0895 11.3338 12.9644V10.5944C11.3338 10.4692 11.3844 10.3478 11.4731 10.2595C11.5618 10.1711 11.6838 10.1208 11.8095 10.1208V10.1233ZM11.8132 14.4168C11.8723 14.3959 11.9352 14.3874 11.9968 14.3898C12.0596 14.3935 12.12 14.4082 12.1767 14.4352C12.2333 14.4622 12.2839 14.5002 12.3258 14.5456C12.3677 14.5922 12.3997 14.6462 12.4206 14.7051C12.5648 15.1099 12.8162 15.4681 13.1476 15.7416C13.4791 16.0152 13.8796 16.1943 14.3059 16.2593C14.7322 16.3243 15.1672 16.2728 15.5664 16.1109C15.9657 15.949 16.3131 15.6815 16.5719 15.3381H15.1425C15.0169 15.3381 14.8949 15.2878 14.8062 15.1994C14.7174 15.1111 14.6669 14.9897 14.6669 14.8645C14.6669 14.7394 14.7174 14.618 14.8062 14.5297C14.8949 14.4413 15.0169 14.391 15.1425 14.391H17.5231C17.6488 14.391 17.7708 14.4413 17.8595 14.5297C17.9482 14.618 17.9988 14.7394 17.9988 14.8645V17.2346C17.9988 17.3597 17.9482 17.4811 17.8595 17.5694C17.7708 17.6578 17.6488 17.7081 17.5231 17.7081C17.3975 17.7081 17.2755 17.6578 17.1868 17.5694C17.098 17.4811 17.0475 17.3597 17.0475 17.2346V16.2385C16.6508 16.6408 16.1591 16.9365 15.6157 17.0972C15.0735 17.2579 14.4981 17.2775 13.9461 17.156C13.3941 17.0346 12.8815 16.7745 12.4576 16.4016C12.0337 16.0287 11.7121 15.554 11.5236 15.0228C11.5027 14.9639 11.494 14.9013 11.4965 14.84C11.5002 14.7774 11.515 14.7173 11.5421 14.6609C11.5692 14.6045 11.6074 14.5542 11.653 14.5125C11.6986 14.4708 11.754 14.4389 11.8132 14.418V14.4168Z" />
</g>
<defs>
<clipPath id="clip0_1643_16870">
<rect width="16" height="16" fill="white" transform="translate(2 2)"/>
</clipPath>
</defs>
</svg>
