<svg width="16" height="16" viewBox="0 0 16 16" fill="none" xmlns="http://www.w3.org/2000/svg">
<g clip-path="url(#clip0_1643_16872)">
<path fill-rule="evenodd" clip-rule="evenodd" d="M8.03622 9.00038V7.84359C8.03622 7.37744 8.41573 6.99962 8.88396 6.99962H13.0586V2.03389C13.0586 1.73212 13.0019 1.43157 12.8738 1.15802C12.5288 0.431802 11.8116 0 11.0489 0H3.04707C2.74396 0 2.44207 0.0564287 2.16729 0.184007C1.4366 0.526259 1.00287 1.24021 1.00287 1.99954V14.0005C0.736717 14.0005 0.480421 14.106 0.293128 14.2936C0.104603 14.4813 -0.00136566 14.7353 -0.00136566 15.0002C-0.00136566 15.4026 0.242608 15.7804 0.647999 15.9374C0.765057 15.9828 0.890741 16.0012 1.01519 16.0012H4.00202C4.12771 16.0012 4.25339 15.9828 4.36922 15.9374C4.77584 15.7804 5.01858 15.4026 5.01858 15.0002V13.0117C5.01858 12.8878 5.03706 12.7627 5.08265 12.6462C5.24037 12.2426 5.61989 11.9997 6.02405 11.9997H8.03252V8.99916L8.03622 9.00038ZM8.03622 3.00054H10.0447V5.00008H8.03622V3.00054ZM6.02774 9.00038H4.01927V7.00084H6.02774V9.00038ZM6.02774 5.00008H4.01927V3.00054H6.02774V5.00008Z" class="highlight"/>
<path fill-rule="evenodd" clip-rule="evenodd" d="M9.80947 8.1233C9.93516 8.1233 10.0571 8.1736 10.1459 8.26192C10.2346 8.35024 10.2851 8.47169 10.2851 8.59681V9.5929C10.6819 9.19054 11.1735 8.8949 11.7169 8.73421C12.2591 8.57351 12.8345 8.55388 13.3865 8.67532C13.9385 8.79677 14.4511 9.05683 14.875 9.42975C15.2989 9.80267 15.6205 10.2774 15.809 10.8086C15.8324 10.8675 15.8423 10.9312 15.841 10.9938C15.8386 11.0576 15.8238 11.1189 15.7979 11.1766C15.7708 11.2342 15.7338 11.2858 15.6858 11.3287C15.639 11.3716 15.5835 11.4048 15.5231 11.4256C15.4628 11.4465 15.3999 11.4551 15.3358 11.4514C15.2718 11.4477 15.2102 11.4305 15.1535 11.4035C15.0968 11.3753 15.0451 11.3361 15.0044 11.2882C14.9625 11.2404 14.9317 11.1839 14.912 11.1238C14.7678 10.719 14.5164 10.3608 14.185 10.0873C13.8535 9.81371 13.4531 9.63461 13.0267 9.5696C12.6004 9.50458 12.1654 9.5561 11.7662 9.71803C11.367 9.87995 11.0195 10.1474 10.7607 10.4909H12.1901C12.3157 10.4909 12.4377 10.5412 12.5265 10.6295C12.6152 10.7178 12.6657 10.8392 12.6657 10.9644C12.6657 11.0895 12.6152 11.2109 12.5265 11.2993C12.4377 11.3876 12.3157 11.4379 12.1901 11.4379H9.80947C9.68379 11.4379 9.5618 11.3876 9.47308 11.2993C9.38437 11.2109 9.33385 11.0895 9.33385 10.9644V8.59436C9.33385 8.46924 9.38437 8.34779 9.47308 8.25947C9.5618 8.17115 9.68379 8.12085 9.80947 8.12085V8.1233ZM9.81317 12.4168C9.87231 12.3959 9.93515 12.3874 9.99676 12.3898C10.0596 12.3935 10.12 12.4082 10.1767 12.4352C10.2333 12.4622 10.2839 12.5002 10.3258 12.5456C10.3677 12.5922 10.3997 12.6462 10.4206 12.7051C10.5648 13.1099 10.8162 13.4681 11.1476 13.7416C11.4791 14.0152 11.8796 14.1943 12.3059 14.2593C12.7322 14.3243 13.1672 14.2728 13.5664 14.1109C13.9657 13.949 14.3131 13.6815 14.5719 13.3381H13.1425C13.0169 13.3381 12.8949 13.2878 12.8062 13.1994C12.7174 13.1111 12.6669 12.9897 12.6669 12.8645C12.6669 12.7394 12.7174 12.618 12.8062 12.5297C12.8949 12.4413 13.0169 12.391 13.1425 12.391H15.5231C15.6488 12.391 15.7708 12.4413 15.8595 12.5297C15.9482 12.618 15.9988 12.7394 15.9988 12.8645V15.2346C15.9988 15.3597 15.9482 15.4811 15.8595 15.5694C15.7708 15.6578 15.6488 15.7081 15.5231 15.7081C15.3975 15.7081 15.2755 15.6578 15.1868 15.5694C15.098 15.4811 15.0475 15.3597 15.0475 15.2346V14.2385C14.6508 14.6408 14.1591 14.9365 13.6157 15.0972C13.0735 15.2579 12.4981 15.2775 11.9461 15.156C11.3941 15.0346 10.8815 14.7745 10.4576 14.4016C10.0337 14.0287 9.71213 13.554 9.5236 13.0228C9.50266 12.9639 9.49403 12.9013 9.4965 12.84C9.50019 12.7774 9.51498 12.7173 9.54209 12.6609C9.56919 12.6045 9.60739 12.5542 9.65298 12.5125C9.69857 12.4708 9.75402 12.4389 9.81317 12.418V12.4168Z" fill="#8D95A4"/>
</g>
<defs>
<clipPath id="clip0_1643_16872">
<rect width="16" height="16" fill="white"/>
</clipPath>
</defs>
</svg>
