<svg width="12" height="20" viewBox="0 0 12 20" fill="none" xmlns="http://www.w3.org/2000/svg">
<g clip-path="url(#clip0_1643_16877)">
<path d="M2.95239 4.40734C3.96511 4.40734 4.78607 3.55848 4.78607 2.51135C4.78607 1.46422 3.96511 0.615356 2.95239 0.615356C1.93968 0.615356 1.11871 1.46422 1.11871 2.51135C1.11871 3.55848 1.93968 4.40734 2.95239 4.40734Z" class="fill-highlight"/>
<path d="M11.2305 6.57777L9.66902 4.23035C9.52692 4.01614 9.30776 3.89222 9.07663 3.8639C9.01499 3.84973 8.95164 3.83911 8.88487 3.83911H5.68663C5.66609 3.83911 5.64725 3.84442 5.62842 3.84442C5.35448 3.83911 5.07712 3.917 4.834 4.09049C4.21592 4.52953 4.05841 5.40406 4.48472 6.04491L7.36622 10.3768L5.16957 12.9615C5.00178 13.158 4.91789 13.4005 4.91275 13.643C4.90419 13.6961 4.89906 13.7493 4.89906 13.8059V18.5662C4.89906 19.1593 5.36304 19.639 5.9366 19.639C6.51016 19.639 6.97414 19.1593 6.97414 18.5662V14.0892L9.64676 10.9451C9.73579 10.8406 9.80085 10.722 9.84366 10.5999C10.1107 10.1432 10.1125 9.54656 9.80085 9.0792L7.47237 5.57932H8.52704L9.84708 7.56559C10.1107 7.96037 10.6329 8.06128 11.0165 7.78865C11.3983 7.51603 11.4959 6.97608 11.2322 6.57954L11.2305 6.57777Z" class="fill-highlight"/>
<path d="M0.933811 19.8462C0.757462 19.8462 0.615356 19.6992 0.615356 19.5169V11.4355C0.615356 10.653 1.23001 10.0175 1.98676 10.0175C2.74352 10.0175 3.35817 10.653 3.35817 11.4355C3.35817 11.6178 3.21607 11.7647 3.03972 11.7647C2.86337 11.7647 2.72126 11.6178 2.72126 11.4355C2.72126 11.0177 2.39254 10.676 1.98676 10.676C1.58099 10.676 1.25226 11.0159 1.25226 11.4355V19.5169C1.25226 19.6992 1.11016 19.8462 0.933811 19.8462Z" fill="#8D95A4"/>
<path d="M4.03787 7.03092L3.93343 7.98334C3.92487 8.063 3.8718 8.13028 3.79818 8.15683L1.84294 8.85256C1.40463 9.00834 1.17007 9.50403 1.32245 9.95723C1.47312 10.4104 1.95251 10.653 2.39081 10.4954L5.68493 9.32346H5.68664C5.80992 9.27743 5.85614 9.12164 5.78252 9.01011L4.40256 6.93709C4.2964 6.77777 4.05842 6.83973 4.03616 7.03092H4.03787Z" class="fill-highlight" />
<path d="M11.3555 18.2953L9.85569 11.5894C9.85569 11.5894 9.85055 11.5841 9.84884 11.5876L8.16925 13.5633C8.16925 13.5633 8.16925 13.5651 8.16925 13.5668L9.34205 18.8069C9.46533 19.3575 9.97896 19.7115 10.5114 19.6248C11.1175 19.5274 11.4959 18.9114 11.3572 18.2935L11.3555 18.2953Z" class="fill-highlight" />
</g>
<defs>
<clipPath id="clip0_1643_16877">
<rect width="10.7692" height="19.2308" fill="white" transform="translate(0.615356 0.615356)"/>
</clipPath>
</defs>
</svg>
