<svg width="20" height="21" viewBox="0 0 20 21" fill="none" xmlns="http://www.w3.org/2000/svg">
<g clip-path="url(#clip0_1643_16875)">
<path d="M6.95239 4.40734C7.96511 4.40734 8.78607 3.55848 8.78607 2.51135C8.78607 1.46422 7.96511 0.615356 6.95239 0.615356C5.93968 0.615356 5.11871 1.46422 5.11871 2.51135C5.11871 3.55848 5.93968 4.40734 6.95239 4.40734Z" class="highlight"/>
<path d="M15.2305 6.57777L13.669 4.23035C13.5269 4.01614 13.3078 3.89222 13.0766 3.8639C13.015 3.84973 12.9516 3.83911 12.8849 3.83911H9.68663C9.66609 3.83911 9.64725 3.84442 9.62842 3.84442C9.35448 3.83911 9.07712 3.917 8.834 4.09049C8.21592 4.52953 8.05841 5.40406 8.48472 6.04491L11.3662 10.3768L9.16957 12.9615C9.00178 13.158 8.91789 13.4005 8.91275 13.643C8.90419 13.6961 8.89906 13.7493 8.89906 13.8059V18.5662C8.89906 19.1593 9.36304 19.639 9.9366 19.639C10.5102 19.639 10.9741 19.1593 10.9741 18.5662V14.0892L13.6468 10.9451C13.7358 10.8406 13.8009 10.722 13.8437 10.5999C14.1107 10.1432 14.1125 9.54656 13.8009 9.0792L11.4724 5.57932H12.527L13.8471 7.56559C14.1107 7.96037 14.6329 8.06128 15.0165 7.78865C15.3983 7.51603 15.4959 6.97608 15.2322 6.57954L15.2305 6.57777Z" class="highlight"/>
<path d="M4.93381 19.8462C4.75746 19.8462 4.61536 19.6992 4.61536 19.5169V11.4355C4.61536 10.653 5.23001 10.0175 5.98676 10.0175C6.74352 10.0175 7.35817 10.653 7.35817 11.4355C7.35817 11.6178 7.21607 11.7647 7.03972 11.7647C6.86337 11.7647 6.72126 11.6178 6.72126 11.4355C6.72126 11.0177 6.39254 10.676 5.98676 10.676C5.58099 10.676 5.25226 11.0159 5.25226 11.4355V19.5169C5.25226 19.6992 5.11016 19.8462 4.93381 19.8462Z" />
<path d="M8.03787 7.03092L7.93343 7.98334C7.92487 8.063 7.8718 8.13028 7.79818 8.15683L5.84294 8.85256C5.40463 9.00834 5.17007 9.50403 5.32245 9.95723C5.47312 10.4104 5.95251 10.653 6.39081 10.4954L9.68493 9.32346H9.68664C9.80992 9.27743 9.85614 9.12164 9.78252 9.01011L8.40256 6.93709C8.2964 6.77777 8.05842 6.83973 8.03616 7.03092H8.03787Z" class="highlight"/>
<path d="M15.3555 18.2953L13.8557 11.5894C13.8557 11.5894 13.8506 11.5841 13.8488 11.5876L12.1693 13.5633C12.1693 13.5633 12.1693 13.5651 12.1693 13.5668L13.3421 18.8069C13.4653 19.3575 13.979 19.7115 14.5114 19.6248C15.1175 19.5274 15.4959 18.9114 15.3572 18.2935L15.3555 18.2953Z" class="highlight"/>
</g>
<defs>
<clipPath id="clip0_1643_16875">
<rect width="10.7692" height="19.2308" fill="white" transform="translate(4.61536 0.615356)"/>
</clipPath>
</defs>
</svg>
