<svg width="20" height="20" viewBox="0 0 20 20" fill="none" xmlns="http://www.w3.org/2000/svg">
<g clip-path="url(#clip0_1245_27707)">
<path d="M7.9989 8.99938C8.79541 8.99938 9.557 8.68293 10.12 8.11987C10.683 7.55682 10.9994 6.79517 10.9994 5.9986C10.9994 5.20203 10.683 4.44037 10.12 3.87732C9.55918 3.31645 8.79541 3 7.9989 3C7.20239 3 6.4408 3.31645 5.87778 3.8795C5.31477 4.44256 4.99835 5.20421 4.99835 6.00078C4.99835 6.79735 5.31477 7.559 5.87778 8.12206C6.4408 8.68511 7.20239 9.00156 7.9989 9.00156V8.99938Z" class="highlight"/>
<path d="M7.99891 11.0006C9.58974 11.0006 11.1151 11.6335 12.2411 12.7574C13.3672 13.8835 13.9978 15.409 13.9978 17H2C2 15.409 2.63284 13.8835 3.75668 12.7574C4.88271 11.6313 6.40807 11.0006 7.99891 11.0006Z" class="highlight"/>
<path d="M15.9989 7.00026C15.9989 6.73401 15.8942 6.48086 15.7065 6.29317C15.5188 6.10549 15.2635 6.00073 14.9995 6.00073C14.7354 6.00073 14.4801 6.10549 14.2924 6.29317C14.1048 6.48086 14 6.7362 14 7.00026V7.9998H13.0006C12.7343 7.9998 12.4812 8.10455 12.2935 8.29224C12.1058 8.47992 12.0011 8.73526 12.0011 8.99933C12.0011 9.2634 12.1058 9.51874 12.2935 9.70642C12.4812 9.89411 12.7343 9.99886 13.0006 9.99886H14V10.9984C14 11.2646 14.1048 11.5178 14.2924 11.7055C14.4801 11.8932 14.7332 11.9979 14.9995 11.9979C15.2657 11.9979 15.5188 11.8932 15.7065 11.7055C15.8942 11.5178 15.9989 11.2646 15.9989 10.9984V9.99886H16.9984C17.2646 9.99886 17.5177 9.89411 17.7054 9.70642C17.8931 9.51874 17.9978 9.26558 17.9978 8.99933C17.9978 8.73308 17.8931 8.47992 17.7054 8.29224C17.5177 8.10455 17.2624 7.9998 16.9984 7.9998H15.9989V7.00026Z" />
</g>
<defs>
<clipPath id="clip0_1245_27707">
<rect width="16" height="14" fill="white" transform="translate(2 3)"/>
</clipPath>
</defs>
</svg>
