<svg width="16" height="14" viewBox="0 0 16 14" fill="none" xmlns="http://www.w3.org/2000/svg">
<g clip-path="url(#clip0_1245_27709)">
<path d="M5.9989 5.99938C6.79541 5.99938 7.557 5.68293 8.12001 5.11987C8.68302 4.55682 8.99944 3.79517 8.99944 2.9986C8.99944 2.20203 8.68302 1.44037 8.12001 0.877319C7.55918 0.316446 6.79541 0 5.9989 0C5.20239 0 4.4408 0.316446 3.87778 0.879501C3.31477 1.44256 2.99835 2.20421 2.99835 3.00078C2.99835 3.79735 3.31477 4.559 3.87778 5.12206C4.4408 5.68511 5.20239 6.00156 5.9989 6.00156V5.99938Z" class="highlight"/>
<path d="M5.99891 8.00061C7.58974 8.00061 9.11511 8.6335 10.2411 9.75743C11.3672 10.8835 11.9978 12.409 11.9978 14H0C0 12.409 0.632842 10.8835 1.75668 9.75743C2.88271 8.63132 4.40807 8.00061 5.99891 8.00061Z" class="highlight"/>
<path d="M13.9989 4.00026C13.9989 3.73401 13.8942 3.48086 13.7065 3.29317C13.5188 3.10549 13.2635 3.00073 12.9995 3.00073C12.7354 3.00073 12.4801 3.10549 12.2924 3.29317C12.1048 3.48086 12 3.7362 12 4.00026V4.9998H11.0006C10.7343 4.9998 10.4812 5.10455 10.2935 5.29224C10.1058 5.47992 10.0011 5.73526 10.0011 5.99933C10.0011 6.2634 10.1058 6.51874 10.2935 6.70642C10.4812 6.89411 10.7343 6.99886 11.0006 6.99886H12V7.99839C12 8.26465 12.1048 8.5178 12.2924 8.70549C12.4801 8.89317 12.7332 8.99793 12.9995 8.99793C13.2657 8.99793 13.5188 8.89317 13.7065 8.70549C13.8942 8.5178 13.9989 8.26465 13.9989 7.99839V6.99886H14.9984C15.2646 6.99886 15.5177 6.89411 15.7054 6.70642C15.8931 6.51874 15.9978 6.26558 15.9978 5.99933C15.9978 5.73308 15.8931 5.47992 15.7054 5.29224C15.5177 5.10455 15.2624 4.9998 14.9984 4.9998H13.9989V4.00026Z" fill="#8D95A4"/>
</g>
<defs>
<clipPath id="clip0_1245_27709">
<rect width="16" height="14" fill="white"/>
</clipPath>
</defs>
</svg>
