<svg width="20" height="20" viewBox="0 0 20 20" fill="none" xmlns="http://www.w3.org/2000/svg">
<g clip-path="url(#clip0_1245_27719)">
<path d="M11 6C11 6.7957 10.6839 7.55914 10.1204 8.12043C9.55699 8.68387 8.7957 9 8 9C7.2043 9 6.44086 8.68387 5.87957 8.12043C5.31613 7.55699 5 6.7957 5 6C5 5.2043 5.31613 4.44086 5.87957 3.87957C6.44086 3.31613 7.2043 3 8 3C8.7957 3 9.55914 3.31613 10.1204 3.87957C10.6839 4.44301 11 5.2043 11 6Z" class="highlight"/>
<path d="M14 17C14 15.4086 13.3677 13.8839 12.243 12.757C11.1183 11.6323 9.5914 11 8 11C6.4086 11 4.88172 11.6323 3.75699 12.757C2.63226 13.8817 2 15.4086 2 17H14Z" class="highlight"/>
<path d="M13 8C12.7355 8 12.4796 8.10538 12.2925 8.29247C12.1054 8.47957 12 8.73333 12 9C12 9.26667 12.1054 9.52043 12.2925 9.70753C12.4796 9.89462 12.7333 10 13 10H17C17.2645 10 17.5204 9.89462 17.7075 9.70753C17.8946 9.52043 18 9.26667 18 9C18 8.73333 17.8946 8.47957 17.7075 8.29247C17.5204 8.10538 17.2667 8 17 8H13Z" />
</g>
<defs>
<clipPath id="clip0_1245_27719">
<rect width="16" height="14" fill="white" transform="translate(2 3)"/>
</clipPath>
</defs>
</svg>
