<svg width="16" height="14" viewBox="0 0 16 14" fill="none" xmlns="http://www.w3.org/2000/svg">
<g clip-path="url(#clip0_1245_27721)">
<path d="M9 3C9 3.7957 8.68387 4.55914 8.12043 5.12043C7.55699 5.68387 6.7957 6 6 6C5.2043 6 4.44086 5.68387 3.87957 5.12043C3.31613 4.55699 3 3.7957 3 3C3 2.2043 3.31613 1.44086 3.87957 0.87957C4.44086 0.316129 5.2043 0 6 0C6.7957 0 7.55914 0.316129 8.12043 0.87957C8.68387 1.44301 9 2.2043 9 3Z" class="fill-highlight"/>
<path d="M12 14C12 12.4086 11.3677 10.8839 10.243 9.75699C9.11828 8.63226 7.5914 8 6 8C4.4086 8 2.88172 8.63226 1.75699 9.75699C0.632258 10.8817 0 12.4086 0 14H12Z" class="fill-highlight" />
<path d="M11 5C10.7355 5 10.4796 5.10538 10.2925 5.29247C10.1054 5.47957 10 5.73333 10 6C10 6.26667 10.1054 6.52043 10.2925 6.70753C10.4796 6.89462 10.7333 7 11 7H15C15.2645 7 15.5204 6.89462 15.7075 6.70753C15.8946 6.52043 16 6.26667 16 6C16 5.73333 15.8946 5.47957 15.7075 5.29247C15.5204 5.10538 15.2667 5 15 5H11Z" fill="#8D95A4"/>
</g>
<defs>
<clipPath id="clip0_1245_27721">
<rect width="16" height="14" fill="white"/>
</clipPath>
</defs>
</svg>
