<svg width="20" height="20" viewBox="0 0 20 20" fill="none" xmlns="http://www.w3.org/2000/svg">
<g clip-path="url(#clip0_1372_15882)">
<path fill-rule="evenodd" clip-rule="evenodd" d="M8.06796 13.08C7.7864 13.08 7.51456 13.2 7.32038 13.4C7.1165 13.61 7.0097 13.88 7.0097 14.17C7.0097 14.46 7.12621 14.74 7.32038 14.94C7.52427 15.14 7.7864 15.26 8.06796 15.26C8.34951 15.26 8.62135 15.14 8.81553 14.94C9.01941 14.73 9.12621 14.46 9.12621 14.17C9.12621 13.88 9.0097 13.6 8.81553 13.4C8.61165 13.19 8.34951 13.08 8.06796 13.08Z" class="highlight"/>
<path fill-rule="evenodd" clip-rule="evenodd" d="M8.06796 10.34C5.68932 10.34 3.67961 11.95 3 14.17C3.67961 16.39 5.68932 18 8.06796 18C10.4466 18 12.4563 16.39 13.1359 14.17C12.4563 11.95 10.4466 10.34 8.06796 10.34ZM9.57282 15.71C9.17476 16.12 8.63107 16.35 8.06796 16.35C7.50485 16.35 6.96117 16.12 6.56311 15.71C6.16505 15.3 5.94175 14.74 5.94175 14.16C5.94175 13.58 6.16505 13.02 6.56311 12.61C6.96117 12.2 7.50485 11.97 8.06796 11.97C8.63107 11.97 9.17476 12.2 9.57282 12.61C9.97087 13.02 10.1942 13.58 10.1942 14.16C10.1942 14.74 9.97087 15.3 9.57282 15.71Z" class="highlight"/>
<path fill-rule="evenodd" clip-rule="evenodd" d="M16.4272 5.99L13.1165 2.59C12.7476 2.21 12.2524 2 11.7282 2H7.29127C6.7767 2 6.28156 2.21 5.92233 2.59C5.5534 2.97 5.34952 3.47 5.34952 4V9.64C5.34952 9.64 5.35923 9.66 5.37864 9.66C6.2136 9.3 7.11651 9.09 8.06796 9.09C11.1748 9.09 13.8058 11.15 14.7573 14.02C14.7961 14.12 14.7961 14.24 14.7573 14.34C14.2621 15.83 13.301 17.09 12.068 17.97C12.0485 17.98 12.068 18 12.0777 18H15.068C15.5825 18 16.0777 17.79 16.4369 17.41C16.8058 17.03 17.0097 16.53 17.0097 16V7.42C17.0097 6.88 16.8058 6.37 16.4369 5.99H16.4272Z" class="highlight"/>
</g>
<defs>
<clipPath id="clip0_1372_15882">
<rect width="14" height="16" fill="white" transform="translate(3 2)"/>
</clipPath>
</defs>
</svg>
