<svg width="20" height="20" viewBox="0 0 20 20" fill="none" xmlns="http://www.w3.org/2000/svg">
<g clip-path="url(#clip0_1372_15882)">
<path fill-rule="evenodd" clip-rule="evenodd" d="M7.92995 13.1282C7.62829 13.1282 7.33703 13.25 7.12898 13.4532C6.91054 13.6665 6.79611 13.9407 6.79611 14.2352C6.79611 14.5297 6.92094 14.8141 7.12898 15.0172C7.34743 15.2204 7.62829 15.3422 7.92995 15.3422C8.23162 15.3422 8.52288 15.2204 8.73092 15.0172C8.94937 14.804 9.0638 14.5297 9.0638 14.2352C9.0638 13.9407 8.93897 13.6563 8.73092 13.4532C8.51248 13.2399 8.23162 13.1282 7.92995 13.1282Z" fill="#374151"/>
<path fill-rule="evenodd" clip-rule="evenodd" d="M7.92996 10.3453C5.38141 10.3453 3.22816 11.9805 2.5 14.2352C3.22816 16.4899 5.38141 18.125 7.92996 18.125C10.4785 18.125 12.6318 16.4899 13.3599 14.2352C12.6318 11.9805 10.4785 10.3453 7.92996 10.3453ZM9.5423 15.7992C9.11581 16.2157 8.53329 16.4492 7.92996 16.4492C7.32663 16.4492 6.74411 16.2157 6.31761 15.7992C5.89112 15.3828 5.65187 14.8141 5.65187 14.225C5.65187 13.636 5.89112 13.0672 6.31761 12.6508C6.74411 12.2344 7.32663 12.0008 7.92996 12.0008C8.53329 12.0008 9.11581 12.2344 9.5423 12.6508C9.96879 13.0672 10.208 13.636 10.208 14.225C10.208 14.8141 9.96879 15.3828 9.5423 15.7992Z" fill="#374151"/>
<path fill-rule="evenodd" clip-rule="evenodd" d="M16.8863 5.92734L13.3391 2.47422C12.9438 2.08828 12.4133 1.875 11.8516 1.875H7.09778C6.54646 1.875 6.01595 2.08828 5.63106 2.47422C5.23578 2.86016 5.01733 3.36797 5.01733 3.90625V9.63438C5.01733 9.63438 5.02774 9.65469 5.04854 9.65469C5.94313 9.28906 6.91054 9.07578 7.92996 9.07578C11.2587 9.07578 14.0777 11.168 15.0971 14.0828C15.1387 14.1844 15.1387 14.3063 15.0971 14.4078C14.5666 15.9211 13.5368 17.2008 12.2157 18.0945C12.1949 18.1047 12.2157 18.125 12.2261 18.125H15.43C15.9813 18.125 16.5118 17.9117 16.8967 17.5258C17.292 17.1398 17.5104 16.632 17.5104 16.0938V7.37969C17.5104 6.83125 17.292 6.31328 16.8967 5.92734H16.8863Z" fill="#374151"/>
</g>
<defs>
<clipPath id="clip0_1372_15882">
<rect width="15" height="16.25" fill="white" transform="translate(2.5 1.875)"/>
</clipPath>
</defs>
</svg>