<svg width="16" height="12" viewBox="0 0 16 12" fill="none" xmlns="http://www.w3.org/2000/svg">
<g clip-path="url(#clip0_1643_16867)">
<path d="M2 0C1.46963 0 0.961482 0.21037 0.585185 0.585185C0.21037 0.961482 0 1.46963 0 2V3H16V2C16 1.46963 15.7896 0.961482 15.4148 0.585185C15.04 0.21037 14.5304 0 14 0H2V0Z" fill="#8D95A4"/>
<path fill-rule="evenodd" clip-rule="evenodd" d="M16 5H0V10C0 10.5304 0.21037 11.0385 0.585185 11.4148C0.96 11.7896 1.46963 12 2 12H14C14.5304 12 15.0385 11.7896 15.4148 11.4148C15.7896 11.04 16 10.5304 16 10V5ZM2 9C2 8.73481 2.10519 8.48 2.29333 8.29333C2.48148 8.10519 2.73481 8 3 8H4C4.26519 8 4.52 8.10519 4.70667 8.29333C4.89481 8.48148 5 8.73481 5 9C5 9.26519 4.89481 9.52 4.70667 9.70667C4.51852 9.89481 4.26519 10 4 10H3C2.73481 10 2.48 9.89481 2.29333 9.70667C2.10519 9.51852 2 9.26519 2 9ZM7 8C6.73481 8 6.48 8.10519 6.29333 8.29333C6.10519 8.48148 6 8.73481 6 9C6 9.26519 6.10519 9.52 6.29333 9.70667C6.48148 9.89481 6.73481 10 7 10H8C8.26519 10 8.52 9.89481 8.70667 9.70667C8.89333 9.51852 9 9.26519 9 9C9 8.73481 8.89481 8.48 8.70667 8.29333C8.51852 8.10667 8.26519 8 8 8H7Z" class="fill-highlight"/>
</g>
<defs>
<clipPath id="clip0_1643_16867">
<rect width="16" height="12" fill="white"/>
</clipPath>
</defs>
</svg>
