<svg width="20" height="20" viewBox="0 0 20 20" fill="none" xmlns="http://www.w3.org/2000/svg">
<g clip-path="url(#clip0_1643_16865)">
<path d="M4 4C3.46963 4 2.96148 4.21037 2.58519 4.58519C2.21037 4.96148 2 5.46963 2 6V7H18V6C18 5.46963 17.7896 4.96148 17.4148 4.58519C17.04 4.21037 16.5304 4 16 4H4V4Z" />
<path fill-rule="evenodd" clip-rule="evenodd" d="M18 9H2V14C2 14.5304 2.21037 15.0385 2.58519 15.4148C2.96 15.7896 3.46963 16 4 16H16C16.5304 16 17.0385 15.7896 17.4148 15.4148C17.7896 15.04 18 14.5304 18 14V9ZM4 13C4 12.7348 4.10519 12.48 4.29333 12.2933C4.48148 12.1052 4.73481 12 5 12H6C6.26519 12 6.52 12.1052 6.70667 12.2933C6.89481 12.4815 7 12.7348 7 13C7 13.2652 6.89481 13.52 6.70667 13.7067C6.51852 13.8948 6.26519 14 6 14H5C4.73481 14 4.48 13.8948 4.29333 13.7067C4.10519 13.5185 4 13.2652 4 13ZM9 12C8.73481 12 8.48 12.1052 8.29333 12.2933C8.10519 12.4815 8 12.7348 8 13C8 13.2652 8.10519 13.52 8.29333 13.7067C8.48148 13.8948 8.73481 14 9 14H10C10.2652 14 10.52 13.8948 10.7067 13.7067C10.8933 13.5185 11 13.2652 11 13C11 12.7348 10.8948 12.48 10.7067 12.2933C10.5185 12.1067 10.2652 12 10 12H9Z" class="highlight"/>
</g>
<defs>
<clipPath id="clip0_1643_16865">
<rect width="16" height="12" fill="white" transform="translate(2 4)"/>
</clipPath>
</defs>
</svg>
