<svg width="20" height="20" viewBox="0 0 20 20" fill="none" xmlns="http://www.w3.org/2000/svg">
<g clip-path="url(#clip0_1512_15852)">
<path fill-rule="evenodd" clip-rule="evenodd" d="M16.399 5.9975L12.8549 2.58963C12.4611 2.20987 11.943 2 11.3938 2H6.63731C6.08809 2 5.55959 2.20987 5.17617 2.58963C4.78239 2.96939 4.56477 3.46908 4.56477 3.99875V7.93629C4.56477 8.03623 4.67876 8.0762 4.7513 8.00625C5.46633 7.36665 6.46115 7.02686 7.53887 7.20675C8.80312 7.42661 9.84975 8.396 10.1295 9.60525C10.3679 10.6646 10.0363 11.644 9.40415 12.3435C9.37306 12.3735 9.40415 12.4235 9.4456 12.4235H10.4404C11.3316 12.4235 12.0466 13.1131 12.0466 13.9725V17.8601C12.0466 17.92 12.0985 17.97 12.1606 17.97H14.9378C15.4871 17.97 16.0156 17.7601 16.399 17.3804C16.7824 17.0006 17.0104 16.5009 17.0104 15.9713V7.40662C17.0104 6.87695 16.7928 6.36727 16.4093 5.9975H16.399Z" class="highlight"/>
<path d="M3.06218 15.7414H10.8342C10.8342 15.7414 10.8964 15.7414 10.8964 15.6814V14.1324C10.7617 13.8126 10.4301 13.4828 10.0881 13.4828H7.67358V12.2536C8.54404 11.8638 9.14508 10.9644 9.01036 9.99498C8.87565 9.09554 8.07772 8.37599 7.13472 8.24607C5.79793 8.11615 4.72021 9.08554 4.72021 10.3148C4.72021 11.2142 5.25907 11.9338 6.05699 12.2536V13.4828H3.67358C3.34197 13.4828 3 13.7426 3 14.1324V15.6814C3 15.6814 3 15.7414 3.06218 15.7414Z" class="highlight"/>
<path d="M10.2953 16.7008H3.6943C3.32124 16.7008 3.02072 16.9906 3.02072 17.3504C3.02072 17.7102 3.32124 18 3.6943 18H10.2953C10.6684 18 10.9689 17.7102 10.9689 17.3504C10.9689 16.9906 10.6684 16.7008 10.2953 16.7008Z" class="highlight"/>
</g>
<defs>
<clipPath id="clip0_1512_15852">
<rect width="14" height="16" fill="white" transform="translate(3 2)"/>
</clipPath>
</defs>
</svg>
