<svg width="14" height="16" viewBox="0 0 14 16" fill="none" xmlns="http://www.w3.org/2000/svg">
<g clip-path="url(#clip0_1512_15854)">
<path fill-rule="evenodd" clip-rule="evenodd" d="M13.399 3.9975L9.85493 0.589631C9.46115 0.209869 8.94301 0 8.39379 0H3.63731C3.08809 0 2.55959 0.209869 2.17617 0.589631C1.78239 0.969394 1.56477 1.46908 1.56477 1.99875V5.93629C1.56477 6.03623 1.67876 6.0762 1.7513 6.00625C2.46633 5.36665 3.46115 5.02686 4.53887 5.20675C5.80312 5.42661 6.84975 6.396 7.12954 7.60525C7.36788 8.66458 7.03628 9.64397 6.40415 10.3435C6.37306 10.3735 6.40415 10.4235 6.4456 10.4235H7.44042C8.33161 10.4235 9.04664 11.1131 9.04664 11.9725V15.8601C9.04664 15.92 9.09845 15.97 9.16063 15.97H11.9378C12.4871 15.97 13.0156 15.7601 13.399 15.3804C13.7824 15.0006 14.0104 14.5009 14.0104 13.9713V5.40662C14.0104 4.87695 13.7928 4.36727 13.4093 3.9975H13.399Z" class="highlight" />
<path d="M0.0621762 13.7414H7.8342C7.8342 13.7414 7.89637 13.7414 7.89637 13.6814V12.1324C7.76166 11.8126 7.43005 11.4828 7.08808 11.4828H4.67358V10.2536C5.54404 9.86381 6.14508 8.96437 6.01036 7.99498C5.87565 7.09554 5.07772 6.37599 4.13472 6.24607C2.79793 6.11615 1.72021 7.08554 1.72021 8.31478C1.72021 9.21421 2.25907 9.93376 3.05699 10.2536V11.4828H0.673575C0.341969 11.4828 0 11.7426 0 12.1324V13.6814C0 13.6814 0 13.7414 0.0621762 13.7414Z" class="highlight" />
<path d="M7.29533 14.7008H0.694297C0.32124 14.7008 0.0207214 14.9906 0.0207214 15.3504C0.0207214 15.7102 0.32124 16 0.694297 16H7.29533C7.66839 16 7.96891 15.7102 7.96891 15.3504C7.96891 14.9906 7.66839 14.7008 7.29533 14.7008Z" class="highlight" />
</g>
<defs>
<clipPath id="clip0_1512_15854">
<rect width="14" height="16" fill="white"/>
</clipPath>
</defs>
</svg>
