<svg width="24" height="24" viewBox="0 0 24 24" fill="none" xmlns="http://www.w3.org/2000/svg">
<path fill-rule="evenodd" clip-rule="evenodd" d="M19.3511 12.6042C19.0825 11.7986 17.8741 11.7986 17.7399 12.6042C17.7399 12.7385 17.6056 12.8727 17.6056 13.007C17.6056 13.1413 17.4713 13.1413 17.3371 13.2755C17.2028 13.2755 17.0685 13.4098 16.9343 13.2755C16.8 13.2755 16.6657 13.2755 16.5315 13.1413C15.7259 12.7385 14.9203 13.5441 15.3231 14.3497C15.5916 14.8867 15.3231 15.4238 14.786 15.558C13.9804 15.8266 13.9804 17.035 14.786 17.1692C14.9203 17.1692 15.0546 17.3035 15.1888 17.3035L15.4573 17.572C15.4573 17.7063 15.5916 17.8406 15.4573 17.9748C15.4573 18.1091 15.4573 18.2434 15.3231 18.3776C14.9203 19.1832 15.7259 19.9888 16.5315 19.586C16.6657 19.4517 16.8 19.4517 16.9343 19.4517H17.3371C17.4713 19.4517 17.6056 19.586 17.6056 19.7203C17.6056 19.8545 17.7399 19.9888 17.7399 20.1231C18.0084 20.9287 19.2168 20.9287 19.3511 20.1231C19.3511 19.9888 19.4853 19.8545 19.4853 19.7203L19.7539 19.4517C19.8881 19.3175 20.0224 19.3175 20.1566 19.4517C20.2909 19.4517 20.4252 19.4517 20.5594 19.586C21.365 19.9888 22.1706 19.1832 21.7678 18.3776C21.6336 18.2434 21.6336 18.1091 21.6336 17.9748V17.572C21.6336 17.4378 21.7678 17.3035 21.9021 17.3035C22.0364 17.3035 22.1706 17.1692 22.3049 17.1692C23.1105 16.9007 23.1105 15.6923 22.3049 15.558C22.1706 15.558 22.0364 15.4238 21.9021 15.4238L21.6336 15.1552C21.6336 15.021 21.4993 14.8867 21.6336 14.7524C21.6336 14.6182 21.6336 14.4839 21.7678 14.3497C22.1706 13.5441 21.365 12.7385 20.5594 13.1413C20.4252 13.2755 20.2909 13.2755 20.1566 13.2755H19.7539C19.6196 13.2755 19.4853 13.1413 19.4853 13.007C19.4853 12.7385 19.4853 12.6042 19.3511 12.6042ZM18.5455 17.9748C18.9483 17.9748 19.3511 17.8406 19.7539 17.4378C20.0224 17.1692 20.2909 16.7664 20.2909 16.2294C20.2909 15.8266 20.1566 15.4238 19.7539 15.021C19.4853 14.7524 19.0825 14.4839 18.5455 14.4839C18.1427 14.4839 17.7399 14.6182 17.3371 15.021C17.0685 15.2895 16.8 15.6923 16.8 16.2294C16.8 16.6322 16.9343 17.035 17.3371 17.4378C17.7399 17.8406 18.1427 17.9748 18.5455 17.9748Z" fill="#8D95A4"/>
<path d="M20.0841 7.04631L11.4819 2.87964L2.87976 7.04631M20.0841 7.04631L11.4819 11.213M14.4281 20.2026L11.4819 21.6296M20.0841 7.04631V10.8901M11.4819 11.213L2.87976 7.04631M11.4819 11.213V21.6296M2.87976 7.04631V17.463L11.4819 21.6296" stroke="#8D95A4" stroke-width="2" stroke-linecap="round" stroke-linejoin="round"/>
</svg>
