<svg width="24" height="24" viewBox="0 0 24 24" fill="none" stroke="currentColor" xmlns="http://www.w3.org/2000/svg">
    <path d="M9.06293 12H14.9371" class="highlight" stroke-width="2" stroke-linecap="round" stroke-linejoin="round"/>
    <path d="M9.06293 16.2301H14.9371" class="highlight" stroke-width="2" stroke-linecap="round" stroke-linejoin="round"/>
    <path d="M16.8951 21.5177H7.10489C6.58275 21.5177 6.08671 21.2921 5.72121 20.8973C5.35571 20.5025 5.14685 19.9667 5.14685 19.4026V4.59745C5.14685 4.03344 5.35571 3.49764 5.72121 3.10283C6.08671 2.70802 6.58275 2.48242 7.10489 2.48242H12.5744C12.8354 2.48242 13.0834 2.59522 13.2662 2.79263L18.566 8.5173C18.7487 8.7147 18.8531 8.98261 18.8531 9.26461V19.4026C18.8531 19.9667 18.6443 20.5025 18.2788 20.8973C17.9133 21.2921 17.4172 21.5177 16.8951 21.5177V21.5177Z" stroke-width="2" stroke-linecap="round" stroke-linejoin="round"/>
</svg>
