<svg width="24" height="24" viewBox="0 0 24 24" fill="none" xmlns="http://www.w3.org/2000/svg">
<path d="M10.386 5.10376H5.07817C4.51677 5.10376 3.96812 5.33342 3.57259 5.72896C3.17705 6.12449 2.94739 6.67314 2.94739 7.23454V18.9219C2.94739 19.4833 3.17705 20.032 3.57259 20.4275C3.96812 20.8231 4.51677 21.0527 5.07817 21.0527H16.7656C17.327 21.0527 17.8756 20.8231 18.2712 20.4275C18.6667 20.032 18.8964 19.4833 18.8964 18.9219V13.6014" stroke="#8D95A4" stroke-width="2" stroke-linecap="round" stroke-linejoin="round"/>
<path d="M16.7719 3.92342C16.9633 3.71928 17.2057 3.55341 17.4609 3.45133C17.7161 3.3365 17.9968 3.28546 18.2775 3.27271C18.5582 3.27271 18.8389 3.32374 19.1068 3.42582C19.3748 3.52789 19.6045 3.69376 19.8086 3.88515C20.0127 4.08929 20.1659 4.31896 20.2679 4.5869C20.37 4.84208 20.4338 5.12278 20.421 5.41625C20.421 5.69695 20.3572 5.97765 20.2424 6.23283C20.1276 6.48802 19.9745 6.73044 19.7703 6.92183L10.6475 16.0574H7.63635V13.0462L16.7719 3.92342Z" stroke="#FC6D26" stroke-width="2" stroke-linecap="round" stroke-linejoin="round"/>
</svg>
