<svg width="24" height="24" viewBox="0 0 24 24" fill="none" stroke="currentColor" xmlns="http://www.w3.org/2000/svg">
<path fill-rule="evenodd" clip-rule="evenodd" d="M18.7028 13.2686C18.4898 12.4097 17.2385 12.4097 17.0255 13.2686C16.9988 13.4007 16.9323 13.5197 16.8524 13.6122C16.7725 13.7179 16.6527 13.7839 16.5196 13.8368C16.3998 13.8897 16.2667 13.9029 16.1202 13.9029C15.9738 13.9029 15.8673 13.85 15.7342 13.7839C14.962 13.3347 14.0834 14.1804 14.5494 14.9468C14.8555 15.4225 14.5893 16.07 14.0169 16.2021C13.1383 16.4136 13.1383 17.6293 14.0169 17.8407C14.15 17.8671 14.2698 17.9332 14.3763 18.0125C14.4828 18.0918 14.5494 18.2107 14.6026 18.3296C14.6559 18.4486 14.6692 18.5807 14.6692 18.7129C14.6692 18.845 14.6159 18.9639 14.5494 19.0829C14.0834 19.8493 14.962 20.695 15.7342 20.2457C15.8407 20.1796 15.9738 20.14 16.1202 20.1268C16.2533 20.1268 16.3998 20.1268 16.5196 20.1928C16.6394 20.2457 16.7459 20.325 16.8524 20.4175C16.9323 20.5232 16.9988 20.6421 17.0255 20.7611C17.2385 21.62 18.4898 21.62 18.7028 20.7611C18.7294 20.6289 18.796 20.51 18.8759 20.4175C18.9557 20.3118 19.0755 20.2457 19.2087 20.1928C19.3285 20.14 19.4616 20.1268 19.608 20.1268C19.7545 20.1268 19.861 20.1796 19.9941 20.2457C20.7662 20.695 21.6448 19.8493 21.1789 19.0829C21.1123 18.9771 21.0724 18.845 21.0591 18.7129C21.0591 18.5807 21.0591 18.4486 21.1256 18.3296C21.1789 18.2107 21.2588 18.105 21.352 18.0125C21.4585 17.9332 21.5783 17.8671 21.7114 17.8407C22.59 17.6293 22.59 16.4136 21.7114 16.2021C21.5783 16.1757 21.4585 16.1096 21.352 16.0304C21.2455 15.9511 21.1789 15.8321 21.1256 15.7132C21.0724 15.5943 21.0591 15.4621 21.0591 15.33C21.0591 15.1979 21.1123 15.0789 21.1789 14.96C21.6448 14.1936 20.7662 13.3479 19.9941 13.7972C19.8876 13.8632 19.7545 13.9029 19.608 13.9161C19.4749 13.9161 19.3285 13.9161 19.2087 13.85C19.0889 13.7972 18.9824 13.7179 18.8759 13.6254C18.796 13.5197 18.7294 13.4007 18.7028 13.2818V13.2686ZM17.8641 18.6732C18.3167 18.6732 18.7427 18.5014 19.0489 18.1975C19.3684 17.8936 19.5415 17.4575 19.5415 17.0346C19.5415 16.6118 19.3684 16.1757 19.0489 15.8718C18.7294 15.5679 18.3034 15.3961 17.8641 15.3961C17.4248 15.3961 16.9855 15.5679 16.6793 15.8718C16.3598 16.1757 16.1868 16.6118 16.1868 17.0346C16.1868 17.4575 16.3598 17.8936 16.6793 18.1975C16.9988 18.5014 17.4248 18.6732 17.8641 18.6732Z" class="highlight" />
<path d="M11.8069 14.3388C11.1147 14.1274 10.3692 14.0084 9.6237 14.0084C7.72004 14.0084 5.89625 14.7484 4.55171 16.0699C3.20717 17.3913 2.44836 19.162 2.44836 21.0252H12.5923M13.7106 7.00489C13.7106 8.07525 13.2713 9.09274 12.5125 9.83274C11.7537 10.586 10.702 11.0088 9.61039 11.0088C8.51878 11.0088 7.48042 10.586 6.7083 9.83274C5.9495 9.07953 5.5102 8.06203 5.5102 7.00489C5.5102 5.94775 5.9495 4.91704 6.7083 4.17704C7.46711 3.42383 8.51878 3.00098 9.61039 3.00098C10.702 3.00098 11.7404 3.42383 12.5125 4.17704C13.2713 4.93026 13.7106 5.94775 13.7106 7.00489V7.00489Z"  stroke-width="2" stroke-linecap="round" stroke-linejoin="round"/>
</svg>
